<svg width="120" height="104" viewBox="0 0 120 104" fill="none" xmlns="http://www.w3.org/2000/svg">
<path id="Vector" d="M45.9375 82.6667C45.9375 93.3442 37.8227 102 27.8125 102C17.8023 102 9.6875 93.3442 9.6875 82.6667M45.9375 82.6667C45.9375 71.9892 37.8227 63.3333 27.8125 63.3333C17.8023 63.3333 9.6875 71.9892 9.6875 82.6667M45.9375 82.6667H72.1875M9.6875 82.6667H2.8125C2.12215 82.6667 1.5625 82.0697 1.5625 81.3333V3.33333C1.5625 2.59695 2.12214 2 2.8125 2H85.3125C86.0029 2 86.5625 2.59695 86.5625 3.33333V14.6667M108.438 82.6667C108.438 93.3442 100.323 102 90.3125 102C80.3023 102 72.1875 93.3442 72.1875 82.6667M108.438 82.6667C108.438 71.9892 100.323 63.3333 90.3125 63.3333C89.0268 63.3333 87.7725 63.4761 86.5625 63.7476M108.438 82.6667H117.188C117.878 82.6667 118.438 82.0697 118.438 81.3333V49.3333M72.1875 82.6667C72.1875 73.3605 78.3517 65.5901 86.5625 63.7476M86.5625 14.6667H102.638C103.125 14.6667 103.568 14.9691 103.773 15.4413L118.438 49.3333M86.5625 14.6667V49.3333M118.438 49.3333H86.5625M86.5625 49.3333V63.7476" stroke="#2E9D86" stroke-width="3"/>
</svg>
