<svg width="98" height="103" viewBox="0 0 98 103" fill="none" xmlns="http://www.w3.org/2000/svg">
<g id="Group 12">
<path id="Vector 10" d="M18.2235 101H6.125C3.91586 101 2.125 99.2091 2.125 97V37.3036C2.125 36.0345 2.72724 34.8407 3.74793 34.0865L46.1733 2.73877C47.5747 1.70331 49.4851 1.69412 50.8964 2.71604L94.221 34.088C95.2599 34.8403 95.875 36.0452 95.875 37.3278V97C95.875 99.2091 94.0841 101 91.875 101H80.7235M18.2235 101V45.9524C18.2235 43.7432 20.0143 41.9524 22.2235 41.9524H76.7235C78.9326 41.9524 80.7235 43.7432 80.7235 45.9524V55.2857M18.2235 101H34.322M80.7235 101V78.1429M80.7235 101H57.5227M34.322 101V82.1429C34.322 79.9337 36.1128 78.1429 38.322 78.1429H57.5227M34.322 101H57.5227M80.7235 78.1429H57.5227M80.7235 78.1429V55.2857M57.5227 101V78.1429M57.5227 78.1429V59.2857C57.5227 57.0766 59.3136 55.2857 61.5227 55.2857H80.7235" stroke="#2E9D86" stroke-width="3"/>
</g>
</svg>
