<svg width="98" height="104" viewBox="0 0 98 104" fill="none" xmlns="http://www.w3.org/2000/svg">
<path id="Vector 11" d="M69.9535 41.0778V97.8344C69.9535 97.8344 69.9535 97.8344 69.9535 97.8344C69.9535 97.8344 69.9535 102 65.5057 102C42.7081 102 29.9264 102 7.12874 102C2.125 102 2.125 97.8344 2.125 97.8344C2.125 97.8344 2.125 97.8344 2.125 97.8344V28.5809C2.125 28.5809 2.125 28.5809 2.125 28.5809C2.125 28.5809 2.12506 22.8533 7.12874 22.8532C26.8867 22.8529 57.7221 22.8532 57.7221 22.8532M69.9535 41.0778L49.5557 58.6327C49.4417 58.7307 49.3071 58.8019 49.1619 58.8407L29.9235 63.9887M69.9535 41.0778L86.6326 25.4567M29.9235 63.9887L33.1694 51.4912M29.9235 63.9887H13.8004M29.9235 63.9887H57.7221M57.7221 22.8532L70.8646 10.877M57.7221 22.8532L41.9835 37.9529M70.8646 10.877L78.2589 4.13898C78.2816 4.11826 78.3023 4.09761 78.3235 4.07532C78.6504 3.7313 81.5389 0.812438 83.8527 2.54578C89.4124 6.71067 92.1923 9.83543 94.9721 12.9597C97.2356 15.5036 94.5451 18.0475 94.4206 18.1628C94.4166 18.1665 94.4142 18.1687 94.4102 18.1724L86.6326 25.4567M70.8646 10.877L86.6326 25.4567M13.8004 37.9529H41.9835M41.9835 37.9529L35.1317 44.5266C34.998 44.6548 34.9026 44.8176 34.8561 44.9968L33.1694 51.4912M13.8004 51.4912H33.1694M13.8004 76.4849H57.7221M13.8004 89.5025H57.7221" stroke="#2E9D86" stroke-width="3" stroke-linecap="round"/>
</svg>
