<svg width="64" height="65" viewBox="0 0 64 65" fill="none" xmlns="http://www.w3.org/2000/svg">
<circle cx="32" cy="32.5" r="31.5" stroke="#2E9D86"/>
<path d="M39.2401 31.7751L28.0941 21.1551C27.9081 20.9778 27.661 20.8789 27.4041 20.8789C27.1472 20.8789 26.9001 20.9778 26.7141 21.1551L26.7021 21.1671C26.6116 21.253 26.5396 21.3565 26.4904 21.4712C26.4411 21.5858 26.4157 21.7093 26.4157 21.8341C26.4157 21.9589 26.4411 22.0824 26.4904 22.197C26.5396 22.3117 26.6116 22.4151 26.7021 22.5011L37.1981 32.5011L26.7021 42.4971C26.6116 42.583 26.5396 42.6865 26.4904 42.8011C26.4411 42.9158 26.4157 43.0393 26.4157 43.1641C26.4157 43.2889 26.4411 43.4123 26.4904 43.527C26.5396 43.6417 26.6116 43.7451 26.7021 43.8311L26.7141 43.8431C26.9001 44.0204 27.1472 44.1193 27.4041 44.1193C27.661 44.1193 27.9081 44.0204 28.0941 43.8431L39.2401 33.2231C39.3381 33.1297 39.4162 33.0174 39.4695 32.8929C39.5228 32.7685 39.5503 32.6345 39.5503 32.4991C39.5503 32.3637 39.5228 32.2297 39.4695 32.1053C39.4162 31.9808 39.3381 31.8685 39.2401 31.7751Z" fill="#2E9D86"/>
</svg>
