<svg width="14" height="15" viewBox="0 0 14 15" fill="none" xmlns="http://www.w3.org/2000/svg">
<g id="ep:arrow-right-bold">
<path id="Vector" d="M4.63143 1.93148C4.4674 2.09557 4.37524 2.31809 4.37524 2.55011C4.37524 2.78212 4.4674 3.00464 4.63143 3.16873L8.96268 7.49998L4.63143 11.8312C4.47204 11.9963 4.38385 12.2173 4.38584 12.4467C4.38784 12.6761 4.47986 12.8956 4.64209 13.0578C4.80432 13.2201 5.02378 13.3121 5.25321 13.3141C5.48263 13.3161 5.70366 13.2279 5.86868 13.0685L10.8186 8.11861C10.9826 7.95452 11.0747 7.732 11.0747 7.49998C11.0747 7.26796 10.9826 7.04544 10.8186 6.88136L5.86868 1.93148C5.7046 1.76744 5.48208 1.67529 5.25006 1.67529C5.01804 1.67529 4.79552 1.76744 4.63143 1.93148Z" fill="#0B7075"/>
</g>
</svg>
