<svg width="16" height="17" viewBox="0 0 16 17" fill="none" xmlns="http://www.w3.org/2000/svg">
<g id="fluent:home-12-filled">
<path id="Vector" d="M7.15992 2.12942C7.39746 1.93671 7.69404 1.83154 7.99992 1.83154C8.3058 1.83154 8.60237 1.93671 8.83992 2.12942L13.9253 6.24942C14.1565 6.43667 14.343 6.67316 14.4713 6.94165C14.5995 7.21014 14.6662 7.50387 14.6666 7.80142V13.8334C14.6666 14.187 14.5261 14.5262 14.2761 14.7762C14.026 15.0263 13.6869 15.1667 13.3333 15.1667H11.3333C10.9796 15.1667 10.6405 15.0263 10.3904 14.7762C10.1404 14.5262 9.99992 14.187 9.99992 13.8334V10.5001C9.99992 10.3233 9.92968 10.1537 9.80466 10.0287C9.67963 9.90365 9.51006 9.83342 9.33325 9.83342H6.66658C6.48977 9.83342 6.3202 9.90365 6.19518 10.0287C6.07016 10.1537 5.99992 10.3233 5.99992 10.5001V13.8334C5.99992 14.187 5.85944 14.5262 5.60939 14.7762C5.35935 15.0263 5.02021 15.1667 4.66658 15.1667H2.66659C2.31296 15.1667 1.97382 15.0263 1.72378 14.7762C1.47373 14.5262 1.33325 14.187 1.33325 13.8334V7.80275C1.33319 7.50475 1.39973 7.21051 1.52799 6.94152C1.65625 6.67254 1.843 6.43562 2.07459 6.24808L7.15992 2.12942Z" fill="#4E4E4E"/>
</g>
</svg>
