<svg xmlns="http://www.w3.org/2000/svg" width="44" height="44" viewBox="0 0 44 44" fill="none">
  <g clip-path="url(#clip0_866_19607)">
    <path d="M23.7233 21.9999L33.8556 11.8677C34.0558 11.6339 34.1604 11.3331 34.1486 11.0255C34.1367 10.7179 34.0092 10.4261 33.7915 10.2085C33.5738 9.99079 33.282 9.86327 32.9744 9.85139C32.6668 9.83951 32.3661 9.94414 32.1322 10.1444L22 20.2766L11.8678 10.1322C11.6376 9.902 11.3255 9.77271 11 9.77271C10.6745 9.77271 10.3624 9.902 10.1322 10.1322C9.90209 10.3623 9.77279 10.6744 9.77279 10.9999C9.77279 11.3254 9.90209 11.6376 10.1322 11.8677L20.2767 21.9999L10.1322 32.1322C10.0043 32.2417 9.90038 32.3766 9.82702 32.5282C9.75366 32.6798 9.71243 32.845 9.70593 33.0133C9.69943 33.1816 9.72779 33.3495 9.78924 33.5063C9.85068 33.6632 9.94389 33.8056 10.063 33.9247C10.1821 34.0438 10.3246 34.137 10.4814 34.1985C10.6382 34.2599 10.8061 34.2883 10.9744 34.2818C11.1427 34.2753 11.3079 34.2341 11.4595 34.1607C11.6112 34.0873 11.746 33.9834 11.8556 33.8555L22 23.7233L32.1322 33.8555C32.3661 34.0557 32.6668 34.1603 32.9744 34.1485C33.282 34.1366 33.5738 34.0091 33.7915 33.7914C34.0092 33.5737 34.1367 33.2819 34.1486 32.9743C34.1604 32.6667 34.0558 32.366 33.8556 32.1322L23.7233 21.9999Z" fill="white"/>
  </g>
  <defs>
    <clipPath id="clip0_866_19607">
      <rect width="44" height="44" fill="white"/>
    </clipPath>
  </defs>
</svg>