<svg width="32" height="32" viewBox="0 0 32 32" fill="none" xmlns="http://www.w3.org/2000/svg">
<g id="mingcute:time-fill" clip-path="url(#clip0_301_464)">
<g id="Group">
<path id="Vector" d="M16.0001 2.66663C23.3641 2.66663 29.3334 8.63596 29.3334 16C29.3334 23.364 23.3641 29.3333 16.0001 29.3333C8.63608 29.3333 2.66675 23.364 2.66675 16C2.66675 8.63596 8.63608 2.66663 16.0001 2.66663ZM16.0001 7.99996C15.6465 7.99996 15.3073 8.14044 15.0573 8.39048C14.8072 8.64053 14.6667 8.97967 14.6667 9.33329V16C14.6668 16.3536 14.8073 16.6926 15.0574 16.9426L19.0574 20.9426C19.3089 21.1855 19.6457 21.3199 19.9953 21.3169C20.3449 21.3138 20.6793 21.1736 20.9265 20.9264C21.1737 20.6792 21.3139 20.3448 21.317 19.9952C21.32 19.6456 21.1856 19.3088 20.9427 19.0573L17.3334 15.448V9.33329C17.3334 8.97967 17.1929 8.64053 16.9429 8.39048C16.6928 8.14044 16.3537 7.99996 16.0001 7.99996Z" fill="#3AC4A7"/>
</g>
</g>
<defs>
<clipPath id="clip0_301_464">
<rect width="32" height="32" fill="white"/>
</clipPath>
</defs>
</svg>
