<svg width="32" height="32" viewBox="0 0 32 32" fill="none" xmlns="http://www.w3.org/2000/svg">
<g id="mdi:location">
<path id="Vector" d="M16.0001 15.3333C15.116 15.3333 14.2682 14.9821 13.6431 14.357C13.0179 13.7319 12.6667 12.884 12.6667 12C12.6667 11.1159 13.0179 10.2681 13.6431 9.64294C14.2682 9.01782 15.116 8.66663 16.0001 8.66663C16.8841 8.66663 17.732 9.01782 18.3571 9.64294C18.9822 10.2681 19.3334 11.1159 19.3334 12C19.3334 12.4377 19.2472 12.8712 19.0797 13.2756C18.9122 13.68 18.6666 14.0475 18.3571 14.357C18.0476 14.6665 17.6801 14.912 17.2757 15.0796C16.8713 15.2471 16.4378 15.3333 16.0001 15.3333ZM16.0001 2.66663C13.5247 2.66663 11.1508 3.64996 9.40042 5.4003C7.65008 7.15064 6.66675 9.52461 6.66675 12C6.66675 19 16.0001 29.3333 16.0001 29.3333C16.0001 29.3333 25.3334 19 25.3334 12C25.3334 9.52461 24.3501 7.15064 22.5997 5.4003C20.8494 3.64996 18.4754 2.66663 16.0001 2.66663Z" fill="#3AC4A7"/>
</g>
</svg>
