<svg width="172" height="45" viewBox="0 0 172 45" fill="none" xmlns="http://www.w3.org/2000/svg">
<g id="logo3 1" clip-path="url(#clip0_301_1092)">
<g id="Group">
<path id="Vector" d="M65.8672 41.3453V40.6973H69.0899V41.3453H67.8407V44.6393H67.1346V41.3453H65.8672Z" fill="white"/>
<path id="Vector_2" d="M71.679 44.6393H70.9729V40.6973C71.0272 40.6973 71.2264 40.6973 71.498 40.6973C71.7695 40.6973 71.9687 40.6973 72.0773 40.6973C72.3489 40.6973 72.5843 40.7333 72.8015 40.8053C73.0007 40.8593 73.1636 40.9673 73.2723 41.0933C73.3809 41.2013 73.4714 41.3453 73.5257 41.4893C73.5801 41.6333 73.6163 41.7953 73.6163 41.9753C73.6163 42.3353 73.4714 42.6233 73.218 42.8753C72.9645 43.1273 72.6024 43.2353 72.1497 43.2353C71.9325 43.2353 71.7514 43.2353 71.6428 43.1993V44.6393H71.679ZM72.1678 41.3273C72.0773 41.3273 71.9144 41.3273 71.6609 41.3273V42.5333C71.8238 42.5693 72.0049 42.5693 72.1316 42.5693C72.3489 42.5693 72.53 42.5153 72.6567 42.4073C72.8015 42.2993 72.8558 42.1553 72.8558 41.9213C72.874 41.5253 72.6567 41.3273 72.1678 41.3273Z" fill="white"/>
<path id="Vector_3" d="M74.8655 44.6393L76.5131 40.6973H77.1286L78.7762 44.6393H78.052L77.6356 43.6313H75.9518L75.5354 44.6393H74.8655ZM76.7846 41.5793L76.2053 42.9833H77.3459L76.7846 41.5793Z" fill="white"/>
<path id="Vector_4" d="M83.1577 44.6393V42.9473H81.3653V44.6393H80.6592V40.6973H81.3653V42.2993H83.1577V40.6973H83.8276V44.6393H83.1577Z" fill="white"/>
<path id="Vector_5" d="M88.9332 43.739L89.1867 44.243C89.078 44.387 88.8789 44.459 88.6616 44.549C88.4444 44.639 88.1909 44.657 87.9374 44.657C87.3581 44.657 86.8511 44.459 86.489 44.099C86.1269 43.739 85.9277 43.235 85.9277 42.641C85.9277 42.047 86.0907 41.579 86.4528 41.183C86.8149 40.787 87.2856 40.625 87.9374 40.625C88.4444 40.625 88.8246 40.769 89.1324 41.021L88.8246 41.525C88.5711 41.363 88.2633 41.273 87.9374 41.273C87.5753 41.273 87.2675 41.381 87.0141 41.633C86.7606 41.885 86.6519 42.227 86.6519 42.641C86.6519 43.055 86.7968 43.379 87.0503 43.631C87.3037 43.883 87.6296 44.027 88.0279 44.027C88.3538 44.063 88.6616 43.937 88.9332 43.739Z" fill="white"/>
<path id="Vector_6" d="M93.6407 44.6393V41.3453H91.9026V44.6393H91.1965V40.6973H94.3287V44.6393H93.6407Z" fill="white"/>
<path id="Vector_7" d="M96.429 42.677C96.429 42.083 96.6281 41.615 96.9902 41.219C97.3885 40.823 97.8593 40.625 98.4386 40.625C99.018 40.625 99.525 40.823 99.8871 41.183C100.249 41.543 100.466 42.047 100.466 42.641C100.466 43.235 100.267 43.703 99.8871 44.099C99.4888 44.495 99.018 44.657 98.4386 44.657C97.8593 44.657 97.3704 44.459 96.9902 44.099C96.6281 43.739 96.429 43.271 96.429 42.677ZM97.1532 42.677C97.1532 43.073 97.298 43.415 97.5153 43.667C97.7687 43.919 98.0765 44.063 98.4386 44.063C98.837 44.063 99.1629 43.919 99.3801 43.667C99.5974 43.415 99.7422 43.073 99.7422 42.677C99.7422 42.281 99.5974 41.939 99.3801 41.687C99.1266 41.435 98.8189 41.291 98.4386 41.291C98.0765 41.291 97.7325 41.435 97.5153 41.687C97.298 41.939 97.1532 42.263 97.1532 42.677Z" fill="white"/>
<path id="Vector_8" d="M103.309 44.6393H102.603V40.6973C102.657 40.6973 102.856 40.6973 103.128 40.6973C103.399 40.6973 103.599 40.6973 103.707 40.6973C103.979 40.6973 104.214 40.7333 104.431 40.8053C104.631 40.8593 104.794 40.9673 104.902 41.0933C105.011 41.2193 105.101 41.3453 105.156 41.4893C105.21 41.6333 105.246 41.7953 105.246 41.9753C105.246 42.3353 105.101 42.6233 104.848 42.8753C104.594 43.1273 104.232 43.2353 103.78 43.2353C103.562 43.2353 103.381 43.2353 103.273 43.1993V44.6393H103.309ZM103.78 41.3273C103.689 41.3273 103.526 41.3273 103.273 41.3273V42.5333C103.436 42.5693 103.617 42.5693 103.743 42.5693C103.961 42.5693 104.142 42.5153 104.268 42.4073C104.413 42.2993 104.468 42.1553 104.468 41.9213C104.504 41.5253 104.25 41.3273 103.78 41.3273Z" fill="white"/>
<path id="Vector_9" d="M106.767 41.3453V40.6973H109.99V41.3453H108.741V44.6393H108.034V41.3453H106.767Z" fill="white"/>
<path id="Vector_10" d="M114.371 44.6393V42.9473H112.579V44.6393H111.891V40.6973H112.597V42.2993H114.389V40.6973H115.059V44.6393H114.371Z" fill="white"/>
<path id="Vector_11" d="M116.978 44.6393L118.626 40.6973H119.241L120.889 44.6393H120.165L119.748 43.6313H118.065L117.648 44.6393H116.978ZM118.897 41.5793L118.318 42.9833H119.459L118.897 41.5793Z" fill="white"/>
<path id="Vector_12" d="M124.546 44.6393V43.2893H123.985L123.116 44.6393H122.337L123.351 43.1453C123.152 43.0373 122.989 42.8933 122.844 42.7313C122.7 42.5693 122.645 42.3353 122.645 42.0833C122.645 41.6873 122.79 41.3453 123.044 41.0933C123.315 40.8413 123.713 40.6973 124.238 40.6973C124.329 40.6973 124.492 40.6973 124.745 40.6973C124.999 40.6973 125.144 40.6973 125.216 40.6973V44.6393H124.546ZM123.894 42.6233H124.51V41.3273C124.311 41.3273 124.166 41.2913 124.094 41.2913C123.876 41.2913 123.695 41.3453 123.569 41.4893C123.424 41.5973 123.369 41.7773 123.369 41.9753C123.369 42.1373 123.424 42.2813 123.532 42.3893C123.659 42.5153 123.768 42.5873 123.894 42.6233Z" fill="white"/>
<path id="Vector_13" d="M130.105 44.6393V40.6973H130.811V42.5513L132.35 40.6973H133.183L131.553 42.5333L133.255 44.6393H132.386L130.793 42.6053V44.6393H130.105Z" fill="white"/>
<path id="Vector_14" d="M134.685 42.677C134.685 42.083 134.884 41.615 135.247 41.219C135.645 40.823 136.116 40.625 136.695 40.625C137.274 40.625 137.781 40.823 138.143 41.183C138.506 41.543 138.723 42.047 138.723 42.641C138.723 43.235 138.524 43.703 138.143 44.099C137.763 44.495 137.274 44.657 136.695 44.657C136.116 44.657 135.627 44.459 135.247 44.099C134.848 43.739 134.685 43.271 134.685 42.677ZM135.41 42.677C135.41 43.073 135.554 43.415 135.772 43.667C136.025 43.919 136.333 44.063 136.695 44.063C137.093 44.063 137.419 43.919 137.636 43.667C137.854 43.415 137.999 43.073 137.999 42.677C137.999 42.281 137.854 41.939 137.636 41.687C137.383 41.435 137.075 41.291 136.695 41.291C136.333 41.291 135.989 41.435 135.772 41.687C135.554 41.939 135.41 42.263 135.41 42.677Z" fill="white"/>
<path id="Vector_15" d="M140.859 44.6393V40.6973H141.565L142.905 42.5333L144.191 40.6973H144.824V44.6393H144.154V41.7953L142.923 43.5413H142.814L141.565 41.7953V44.6393H140.859Z" fill="white"/>
<path id="Vector_16" d="M149.64 44.6393V41.3453H147.902V44.6393H147.196V40.6973H150.328V44.6393H149.64Z" fill="white"/>
<path id="Vector_17" d="M152.211 44.6393L153.859 40.6973H154.474L156.122 44.6393H155.398L154.981 43.6313H153.297L152.881 44.6393H152.211ZM154.167 41.5793L153.587 42.9833H154.728L154.167 41.5793Z" fill="white"/>
<path id="Vector_18" d="M160.503 44.6393V42.9473H158.711V44.6393H158.005V40.6973H158.711V42.2993H160.503V40.6973H161.173V44.6393H160.503Z" fill="white"/>
<path id="Vector_19" d="M164.197 44.6393H163.581V40.6973H164.287V43.5053L166.333 40.6973H166.949V44.6393H166.243V41.8493L164.197 44.6393Z" fill="white"/>
<path id="Vector_20" d="M171.095 44.6393V43.2893H170.552L169.683 44.6393H168.904L169.918 43.1453C169.719 43.0373 169.556 42.8933 169.411 42.7313C169.266 42.5693 169.212 42.3353 169.212 42.0833C169.212 41.6873 169.357 41.3453 169.61 41.0933C169.882 40.8413 170.28 40.6973 170.805 40.6973C170.896 40.6973 171.059 40.6973 171.312 40.6973C171.566 40.6973 171.711 40.6973 171.783 40.6973V44.6393H171.095ZM170.461 42.6233H171.077V41.3273C170.878 41.3273 170.733 41.2913 170.66 41.2913C170.443 41.2913 170.262 41.3453 170.135 41.4893C169.991 41.5973 169.936 41.7773 169.936 41.9753C169.936 42.1373 169.991 42.2813 170.099 42.3893C170.208 42.5153 170.317 42.5873 170.461 42.6233Z" fill="white"/>
<path id="Vector_21" d="M148.681 13.2294C148.681 13.0674 148.807 12.9414 148.97 12.9414H154.167C154.33 12.9414 154.456 13.0674 154.456 13.2294V19.7814H166.007V13.2294C166.007 13.0674 166.134 12.9414 166.297 12.9414H171.493C171.656 12.9414 171.783 13.0674 171.783 13.2294V32.0034C171.783 32.1654 171.656 32.2914 171.493 32.2914H166.297C166.134 32.2914 166.007 32.1654 166.007 32.0034V24.3174H155.579C155.452 24.3174 155.343 24.2454 155.307 24.1194L154.474 21.5454V32.0034C154.474 32.1654 154.348 32.2914 154.185 32.2914H148.988C148.826 32.2914 148.699 32.1654 148.699 32.0034V13.2294H148.681Z" fill="white"/>
<path id="Vector_22" fill-rule="evenodd" clip-rule="evenodd" d="M134.504 12.9414C135.862 12.9414 136.767 13.8774 137.057 14.3634L145.947 31.8954C146.037 32.0934 145.911 32.3094 145.693 32.3094H140.081C139.972 32.3094 139.882 32.2554 139.827 32.1474L138.325 29.1774H131.336C131.209 29.1774 131.101 29.1054 131.064 28.9794L129.815 25.3074L126.339 32.1474C126.285 32.2374 126.194 32.3094 126.085 32.3094H120.473C120.255 32.3094 120.129 32.0934 120.219 31.8954L129.743 13.1214C129.797 13.0314 129.887 12.9594 129.996 12.9594H134.504V12.9414ZM129.996 24.9114C130.014 24.9114 130.032 24.9114 130.05 24.9114H136.152L133.074 18.8454L129.996 24.9114Z" fill="white"/>
<path id="Vector_23" d="M115.15 12.9414C112.724 12.9414 111.076 13.8234 110.352 14.4174L100.141 24.4794V13.2294C100.141 13.0674 100.014 12.9414 99.8509 12.9414H94.6547C94.4917 12.9414 94.365 13.0674 94.365 13.2294V32.0034C94.365 32.1654 94.4917 32.2914 94.6547 32.2914H96.6825C99.181 32.2914 100.865 31.3554 101.553 30.7614L111.692 20.7714V32.0214C111.692 32.1834 111.818 32.3094 111.981 32.3094H117.178C117.341 32.3094 117.467 32.1834 117.467 32.0214V13.2294C117.467 13.0674 117.341 12.9414 117.178 12.9414H115.15Z" fill="white"/>
<path id="Vector_24" fill-rule="evenodd" clip-rule="evenodd" d="M80.1884 12.9414C81.5463 12.9414 82.4515 13.8774 82.7412 14.3634L91.6309 31.8954C91.7214 32.0934 91.5947 32.3094 91.3774 32.3094H85.7648C85.6562 32.3094 85.5656 32.2554 85.5113 32.1474L84.0086 29.1774H77.02C76.8932 29.1774 76.7846 29.1054 76.7484 28.9794L75.4991 25.3074L72.0229 32.1474C71.9686 32.2374 71.8781 32.3094 71.7694 32.3094H66.1568C65.9395 32.3094 65.8128 32.0934 65.9033 31.8954L75.4267 13.1214C75.481 13.0314 75.5715 12.9594 75.6802 12.9594H80.1884V12.9414ZM75.6802 24.9114C75.6983 24.9114 75.7164 24.9114 75.7345 24.9114H81.836L78.7581 18.8454L75.6802 24.9114Z" fill="white"/>
<path id="Vector_25" d="M32.8613 17.3339L21.0385 37.2959C21.0023 37.3319 21.0023 37.3499 20.9842 37.3499L8.92609 41.3999C8.87178 41.4359 8.78125 41.3999 8.78125 41.3099C8.78125 41.2739 8.78125 41.2559 8.78125 41.2019L32.8975 0.1799C32.9337 0.1259 33.0061 0.0898998 33.0604 0.1439C33.0966 0.1439 33.0966 0.1799 33.0966 0.1799L44.4667 19.5479C44.5029 19.6019 44.5029 19.6559 44.4305 19.6919L38.3652 25.8839C38.3109 25.9379 38.2566 25.9379 38.1842 25.8839C38.1842 25.8839 38.1842 25.8479 38.148 25.8479L33.0423 17.2979C33.0061 17.2439 32.9337 17.2079 32.8794 17.2619C32.8975 17.3159 32.8613 17.3159 32.8613 17.3339Z" fill="white"/>
<path id="Vector_26" d="M49.0836 16.5959L44.8108 13.4459C44.7565 13.3919 44.7203 13.3019 44.7746 13.2479C44.8108 13.2119 44.8289 13.1939 44.8651 13.1939L57.2129 10.8359C57.4121 10.7999 57.5207 10.8899 57.5207 11.0879L58.3535 24.1919C58.3535 24.2459 58.3173 24.2819 58.263 24.2819C58.2268 24.2819 58.2268 24.2819 58.2087 24.2459L54.135 20.8799C54.0445 20.7899 53.954 20.8259 53.8996 20.9159C52.9763 21.9959 52.071 23.0759 51.1657 24.0839C38.4015 38.6279 19.8255 46.1159 0.271845 45.0359C0.235634 45.0359 0.217529 44.9999 0.217529 44.9819C0.217529 44.9639 0.25374 44.9279 0.271845 44.9279C13.5611 43.1099 26.7417 37.7639 37.0436 29.1959C41.4975 25.4879 45.6799 21.5819 49.1017 16.9019C49.1923 16.7759 49.1923 16.6859 49.0836 16.5959Z" fill="white"/>
<path id="Vector_27" d="M50.1336 29.2318L59.0233 44.2978C59.0776 44.3878 59.0595 44.4598 58.969 44.5318C58.9328 44.5678 58.9147 44.5678 58.8785 44.5678H49.1378C49.0835 44.5678 49.0292 44.5318 48.993 44.4778L43.5433 34.9018C43.5071 34.8478 43.5071 34.7578 43.5795 34.7038L49.8983 29.2138C49.9707 29.1418 50.0793 29.1418 50.1336 29.2318Z" fill="white"/>
</g>
</g>
<defs>
<clipPath id="clip0_301_1092">
<rect width="172" height="45" fill="white"/>
</clipPath>
</defs>
</svg>
