<svg width="32" height="32" viewBox="0 0 32 32" fill="none" xmlns="http://www.w3.org/2000/svg">
<g id="majesticons:mail">
<path id="Vector" fill-rule="evenodd" clip-rule="evenodd" d="M7.36725 27.07C6.38581 27.07 5.44458 26.6801 4.7506 25.9861C4.05662 25.2922 3.66675 24.3509 3.66675 23.3695V11.0345C3.66675 10.0531 4.05662 9.11181 4.7506 8.41784C5.44458 7.72386 6.38581 7.33398 7.36725 7.33398H24.6362C25.6177 7.33398 26.5589 7.72386 27.2529 8.41784C27.9469 9.11181 28.3367 10.0531 28.3367 11.0345V23.3695C28.3367 24.3509 27.9469 25.2922 27.2529 25.9861C26.5589 26.6801 25.6177 27.07 24.6362 27.07H7.36725ZM10.6052 12.5394C10.4795 12.4321 10.3336 12.3511 10.1761 12.3013C10.0185 12.2515 9.85259 12.2338 9.68809 12.2494C9.5236 12.2649 9.3639 12.3134 9.21849 12.3918C9.07308 12.4703 8.94491 12.5771 8.84159 12.7061C8.73827 12.835 8.66191 12.9834 8.61704 13.1424C8.57218 13.3014 8.55971 13.4679 8.58039 13.6318C8.60107 13.7957 8.65447 13.9538 8.73743 14.0967C8.82039 14.2396 8.93121 14.3644 9.06331 14.4636L13.6889 18.1653C14.3453 18.6908 15.161 18.9771 16.0017 18.9771C16.8425 18.9771 17.6582 18.6908 18.3146 18.1653L22.9402 14.4648C23.0667 14.3636 23.172 14.2384 23.2502 14.0965C23.3283 13.9545 23.3777 13.7986 23.3956 13.6376C23.4135 13.4765 23.3994 13.3135 23.3543 13.1579C23.3092 13.0023 23.2339 12.8571 23.1326 12.7305C23.0314 12.604 22.9062 12.4987 22.7643 12.4206C22.6223 12.3424 22.4664 12.293 22.3053 12.2751C22.1443 12.2573 21.9813 12.2713 21.8257 12.3164C21.67 12.3615 21.5248 12.4369 21.3983 12.5381L16.7727 16.2386C16.5539 16.4138 16.282 16.5092 16.0017 16.5092C15.7215 16.5092 15.4496 16.4138 15.2308 16.2386L10.6052 12.5381V12.5394Z" fill="#3AC4A7"/>
</g>
</svg>
