<svg width="32" height="32" viewBox="0 0 32 32" fill="none" xmlns="http://www.w3.org/2000/svg">
<g id="ph:phone-fill">
<path id="Vector" d="M25.9876 21.8633C25.8004 23.2861 25.1016 24.5921 24.0219 25.5374C22.9421 26.4827 21.5552 27.0026 20.1202 27C11.7831 27 5.00001 20.2169 5.00001 11.8798C4.99744 10.4448 5.51734 9.05786 6.4626 7.97811C7.40787 6.89835 8.71386 6.19961 10.1367 6.01239C10.4964 5.96846 10.8608 6.04206 11.1753 6.22222C11.4898 6.40238 11.7377 6.67942 11.8818 7.012L14.0994 11.9628V11.9754C14.2097 12.23 14.2553 12.5079 14.232 12.7844C14.2088 13.0609 14.1174 13.3273 13.966 13.5599C13.9471 13.5882 13.9272 13.6145 13.9062 13.6407L11.7201 16.2321C12.5065 17.8303 14.1781 19.4872 15.7973 20.2757L18.353 18.1012C18.3781 18.0801 18.4044 18.0604 18.4317 18.0424C18.6641 17.8874 18.9314 17.7928 19.2096 17.7671C19.4877 17.7414 19.7678 17.7855 20.0246 17.8954L20.0383 17.9017L24.9849 20.1182C25.318 20.2618 25.5957 20.5094 25.7765 20.824C25.9572 21.1386 26.0313 21.5032 25.9876 21.8633Z" fill="#3AC4A7"/>
</g>
</svg>
