<svg width="170" height="45" viewBox="0 0 170 45" fill="none" xmlns="http://www.w3.org/2000/svg">
<path d="M65.0508 41.2092V40.5615H68.2441V41.2092H67.0063V44.5017H66.3066V41.2092H65.0508Z" fill="white"/>
<path d="M70.8093 44.5017H70.1096V40.5615C70.1634 40.5615 70.3608 40.5615 70.6299 40.5615C70.899 40.5615 71.0963 40.5615 71.204 40.5615C71.4731 40.5615 71.7063 40.5975 71.9216 40.6695C72.1189 40.7234 72.2804 40.8314 72.388 40.9573C72.4956 41.0653 72.5853 41.2092 72.6392 41.3532C72.693 41.4971 72.7289 41.659 72.7289 41.8389C72.7289 42.1988 72.5853 42.4866 72.3342 42.7385C72.083 42.9904 71.7242 43.0983 71.2757 43.0983C71.0604 43.0983 70.881 43.0983 70.7734 43.0623V44.5017H70.8093ZM71.2937 41.1912C71.204 41.1912 71.0425 41.1912 70.7913 41.1912V42.3967C70.9528 42.4326 71.1322 42.4326 71.2578 42.4326C71.4731 42.4326 71.6525 42.3787 71.778 42.2707C71.9216 42.1628 71.9754 42.0188 71.9754 41.7849C71.9933 41.3891 71.778 41.1912 71.2937 41.1912Z" fill="white"/>
<path d="M73.9668 44.5017L75.5993 40.5615H76.2093L77.8419 44.5017H77.1242L76.7116 43.4941H75.0432L74.6306 44.5017H73.9668ZM75.8684 41.4431L75.2944 42.8464H76.4246L75.8684 41.4431Z" fill="white"/>
<path d="M82.1835 44.5017V42.8105H80.4074V44.5017H79.7078V40.5615H80.4074V42.1628H82.1835V40.5615H82.8473V44.5017H82.1835Z" fill="white"/>
<path d="M87.9063 43.6028L88.1574 44.1065C88.0498 44.2505 87.8525 44.3224 87.6372 44.4124C87.4219 44.5023 87.1707 44.5203 86.9196 44.5203C86.3455 44.5203 85.8432 44.3224 85.4844 43.9626C85.1256 43.6028 84.9282 43.099 84.9282 42.5053C84.9282 41.9116 85.0897 41.4438 85.4485 41.048C85.8073 40.6522 86.2737 40.4902 86.9196 40.4902C87.4219 40.4902 87.7986 40.6342 88.1036 40.886L87.7986 41.3898C87.5475 41.2279 87.2425 41.1379 86.9196 41.1379C86.5608 41.1379 86.2558 41.2459 86.0046 41.4978C85.7535 41.7496 85.6458 42.0915 85.6458 42.5053C85.6458 42.9191 85.7893 43.2429 86.0405 43.4948C86.2917 43.7467 86.6146 43.8906 87.0093 43.8906C87.3322 43.9266 87.6372 43.8007 87.9063 43.6028Z" fill="white"/>
<path d="M92.5708 44.5017V41.2092H90.8486V44.5017H90.1489V40.5615H93.2526V44.5017H92.5708Z" fill="white"/>
<path d="M95.3335 42.5413C95.3335 41.9475 95.5308 41.4798 95.8896 41.084C96.2843 40.6881 96.7508 40.4902 97.3248 40.4902C97.8989 40.4902 98.4013 40.6881 98.7601 41.048C99.1189 41.4078 99.3341 41.9116 99.3341 42.5053C99.3341 43.099 99.1368 43.5668 98.7601 43.9626C98.3654 44.3584 97.8989 44.5203 97.3248 44.5203C96.7508 44.5203 96.2664 44.3224 95.8896 43.9626C95.5308 43.6028 95.3335 43.135 95.3335 42.5413ZM96.0511 42.5413C96.0511 42.9371 96.1946 43.2789 96.4099 43.5308C96.6611 43.7827 96.966 43.9266 97.3248 43.9266C97.7195 43.9266 98.0425 43.7827 98.2577 43.5308C98.473 43.2789 98.6165 42.9371 98.6165 42.5413C98.6165 42.1455 98.473 41.8036 98.2577 41.5517C98.0066 41.2999 97.7016 41.1559 97.3248 41.1559C96.966 41.1559 96.6252 41.2999 96.4099 41.5517C96.1946 41.8036 96.0511 42.1275 96.0511 42.5413Z" fill="white"/>
<path d="M102.151 44.5017H101.451V40.5615C101.505 40.5615 101.702 40.5615 101.971 40.5615C102.241 40.5615 102.438 40.5615 102.546 40.5615C102.815 40.5615 103.048 40.5975 103.263 40.6695C103.46 40.7234 103.622 40.8314 103.73 40.9573C103.837 41.0833 103.927 41.2092 103.981 41.3532C104.035 41.4971 104.07 41.659 104.07 41.8389C104.07 42.1988 103.927 42.4866 103.676 42.7385C103.425 42.9904 103.066 43.0983 102.617 43.0983C102.402 43.0983 102.223 43.0983 102.115 43.0623V44.5017H102.151ZM102.617 41.1912C102.528 41.1912 102.366 41.1912 102.115 41.1912V42.3967C102.276 42.4326 102.456 42.4326 102.581 42.4326C102.797 42.4326 102.976 42.3787 103.102 42.2707C103.245 42.1628 103.299 42.0188 103.299 41.7849C103.335 41.3891 103.084 41.1912 102.617 41.1912Z" fill="white"/>
<path d="M105.577 41.2092V40.5615H108.77V41.2092H107.533V44.5017H106.833V41.2092H105.577Z" fill="white"/>
<path d="M113.112 44.5017V42.8105H111.336V44.5017H110.654V40.5615H111.354V42.1628H113.13V40.5615H113.794V44.5017H113.112Z" fill="white"/>
<path d="M115.695 44.5017L117.328 40.5615H117.938L119.57 44.5017H118.853L118.44 43.4941H116.772L116.359 44.5017H115.695ZM117.597 41.4431L117.023 42.8464H118.153L117.597 41.4431Z" fill="white"/>
<path d="M123.194 44.5017V43.1523H122.638L121.777 44.5017H121.006L122.01 43.0084C121.813 42.9004 121.651 42.7565 121.508 42.5946C121.364 42.4326 121.311 42.1988 121.311 41.9469C121.311 41.5511 121.454 41.2092 121.705 40.9573C121.974 40.7055 122.369 40.5615 122.889 40.5615C122.979 40.5615 123.14 40.5615 123.392 40.5615C123.643 40.5615 123.786 40.5615 123.858 40.5615V44.5017H123.194ZM122.548 42.4866H123.158V41.1912C122.961 41.1912 122.818 41.1552 122.746 41.1552C122.531 41.1552 122.351 41.2092 122.226 41.3532C122.082 41.4611 122.028 41.641 122.028 41.8389C122.028 42.0008 122.082 42.1448 122.19 42.2527C122.315 42.3787 122.423 42.4506 122.548 42.4866Z" fill="white"/>
<path d="M128.702 44.5017V40.5615H129.402V42.4147L130.926 40.5615H131.752L130.137 42.3967L131.823 44.5017H130.962L129.384 42.4686V44.5017H128.702Z" fill="white"/>
<path d="M133.241 42.5413C133.241 41.9475 133.438 41.4798 133.797 41.084C134.192 40.6881 134.658 40.4902 135.232 40.4902C135.806 40.4902 136.308 40.6881 136.667 41.048C137.026 41.4078 137.241 41.9116 137.241 42.5053C137.241 43.099 137.044 43.5668 136.667 43.9626C136.291 44.3584 135.806 44.5203 135.232 44.5203C134.658 44.5203 134.174 44.3224 133.797 43.9626C133.402 43.6028 133.241 43.135 133.241 42.5413ZM133.958 42.5413C133.958 42.9371 134.102 43.2789 134.317 43.5308C134.568 43.7827 134.873 43.9266 135.232 43.9266C135.627 43.9266 135.95 43.7827 136.165 43.5308C136.38 43.2789 136.524 42.9371 136.524 42.5413C136.524 42.1455 136.38 41.8036 136.165 41.5517C135.914 41.2999 135.609 41.1559 135.232 41.1559C134.873 41.1559 134.532 41.2999 134.317 41.5517C134.102 41.8036 133.958 42.1275 133.958 42.5413Z" fill="white"/>
<path d="M139.358 44.5017V40.5615H140.058L141.386 42.3967L142.659 40.5615H143.287V44.5017H142.623V41.659L141.404 43.4042H141.296L140.058 41.659V44.5017H139.358Z" fill="white"/>
<path d="M148.059 44.5017V41.2092H146.337V44.5017H145.637V40.5615H148.741V44.5017H148.059Z" fill="white"/>
<path d="M150.607 44.5017L152.239 40.5615H152.849L154.482 44.5017H153.764L153.352 43.4941H151.683L151.271 44.5017H150.607ZM152.544 41.4431L151.97 42.8464H153.101L152.544 41.4431Z" fill="white"/>
<path d="M158.823 44.5017V42.8105H157.047V44.5017H156.348V40.5615H157.047V42.1628H158.823V40.5615H159.487V44.5017H158.823Z" fill="white"/>
<path d="M162.483 44.5017H161.873V40.5615H162.573V43.3682L164.6 40.5615H165.21V44.5017H164.51V41.713L162.483 44.5017Z" fill="white"/>
<path d="M169.318 44.5017V43.1523H168.78L167.919 44.5017H167.147L168.152 43.0084C167.955 42.9004 167.793 42.7565 167.65 42.5946C167.506 42.4326 167.452 42.1988 167.452 41.9469C167.452 41.5511 167.596 41.2092 167.847 40.9573C168.116 40.7055 168.511 40.5615 169.031 40.5615C169.121 40.5615 169.282 40.5615 169.533 40.5615C169.785 40.5615 169.928 40.5615 170 40.5615V44.5017H169.318ZM168.69 42.4866H169.3V41.1912C169.103 41.1912 168.959 41.1552 168.888 41.1552C168.672 41.1552 168.493 41.2092 168.367 41.3532C168.224 41.4611 168.17 41.641 168.17 41.8389C168.17 42.0008 168.224 42.1448 168.332 42.2527C168.439 42.3787 168.547 42.4506 168.69 42.4866Z" fill="white"/>
<path d="M147.108 13.1062C147.108 12.9443 147.234 12.8184 147.395 12.8184H152.544C152.706 12.8184 152.831 12.9443 152.831 13.1062V19.6551H164.277V13.1062C164.277 12.9443 164.403 12.8184 164.564 12.8184H169.713C169.874 12.8184 170 12.9443 170 13.1062V31.8714C170 32.0333 169.874 32.1593 169.713 32.1593H164.564C164.403 32.1593 164.277 32.0333 164.277 31.8714V24.189H153.944C153.818 24.189 153.71 24.1171 153.674 23.9911L152.849 21.4183V31.8714C152.849 32.0333 152.724 32.1593 152.562 32.1593H147.413C147.252 32.1593 147.126 32.0333 147.126 31.8714V13.1062H147.108Z" fill="#3AC4A7"/>
<path fill-rule="evenodd" clip-rule="evenodd" d="M133.061 12.8184C134.407 12.8184 135.304 13.7539 135.591 14.2397L144.4 31.7635C144.489 31.9614 144.364 32.1773 144.148 32.1773H138.587C138.479 32.1773 138.39 32.1233 138.336 32.0153L136.847 29.0467H129.922C129.796 29.0467 129.689 28.9748 129.653 28.8488L128.415 25.1786L124.97 32.0153C124.917 32.1053 124.827 32.1773 124.719 32.1773H119.158C118.943 32.1773 118.817 31.9614 118.907 31.7635L128.343 12.9983C128.397 12.9083 128.487 12.8364 128.594 12.8364H133.061V12.8184ZM128.594 24.7827C128.612 24.7827 128.63 24.7827 128.648 24.7827H134.694L131.644 18.7196L128.594 24.7827Z" fill="#3AC4A7"/>
<path d="M113.884 12.8184C111.48 12.8184 109.847 13.6999 109.129 14.2937L99.0112 24.3509V13.1062C99.0112 12.9443 98.8856 12.8184 98.7242 12.8184H93.5754C93.4139 12.8184 93.2883 12.9443 93.2883 13.1062V31.8714C93.2883 32.0333 93.4139 32.1593 93.5754 32.1593H95.5847C98.0604 32.1593 99.7288 31.2237 100.411 30.63L110.457 20.6447V31.8894C110.457 32.0513 110.583 32.1773 110.744 32.1773H115.893C116.054 32.1773 116.18 32.0513 116.18 31.8894V13.1062C116.18 12.9443 116.054 12.8184 115.893 12.8184H113.884Z" fill="#3AC4A7"/>
<path fill-rule="evenodd" clip-rule="evenodd" d="M79.2411 12.8184C80.5866 12.8184 81.4836 13.7539 81.7707 14.2397L90.5792 31.7635C90.6689 31.9614 90.5434 32.1773 90.3281 32.1773H84.7667C84.659 32.1773 84.5693 32.1233 84.5155 32.0153L83.0265 29.0467H76.1016C75.976 29.0467 75.8684 28.9748 75.8325 28.8488L74.5946 25.1786L71.1502 32.0153C71.0963 32.1053 71.0066 32.1773 70.899 32.1773H65.3376C65.1223 32.1773 64.9967 31.9614 65.0864 31.7635L74.5229 12.9983C74.5767 12.9083 74.6664 12.8364 74.774 12.8364H79.2411V12.8184ZM74.774 24.7827C74.792 24.7827 74.8099 24.7827 74.8279 24.7827H80.8737L77.8239 18.7196L74.774 24.7827Z" fill="#3AC4A7"/>
<path d="M32.3459 17.2086L20.631 37.1613C20.5951 37.1972 20.5951 37.2152 20.5772 37.2152L8.62912 41.2633C8.5753 41.2993 8.4856 41.2633 8.4856 41.1734C8.4856 41.1374 8.4856 41.1194 8.4856 41.0654L32.3818 0.062683C32.4176 0.00870839 32.4894 -0.0272749 32.5432 0.0266998C32.5791 0.0266998 32.5791 0.062683 32.5791 0.062683L43.8455 19.4216C43.8813 19.4756 43.8813 19.5295 43.8096 19.5655L37.7996 25.7546C37.7458 25.8086 37.692 25.8086 37.6202 25.7546C37.6202 25.7546 37.6202 25.7186 37.5844 25.7186L32.5253 17.1726C32.4894 17.1187 32.4176 17.0827 32.3638 17.1367C32.3818 17.1906 32.3459 17.1906 32.3459 17.2086Z" fill="#3AC4A7"/>
<path d="M48.4202 16.4711L44.1864 13.3226C44.1325 13.2686 44.0967 13.1787 44.1505 13.1247C44.1864 13.0887 44.2043 13.0707 44.2402 13.0707L56.4753 10.7138C56.6726 10.6778 56.7803 10.7678 56.7803 10.9657L57.6055 24.0635C57.6055 24.1175 57.5696 24.1535 57.5158 24.1535C57.4799 24.1535 57.4799 24.1535 57.462 24.1175L53.4255 20.7531C53.3358 20.6631 53.2461 20.6991 53.1923 20.7891C52.2773 21.8686 51.3803 22.9481 50.4833 23.9556C37.8356 38.4928 19.4291 45.9773 0.05382 44.8978C0.0179399 44.8978 0 44.8618 0 44.8438C0 44.8258 0.03588 44.7898 0.05382 44.7898C13.2218 42.9727 26.2822 37.6292 36.4901 29.0652C40.9033 25.3589 45.0475 21.4548 48.4382 16.777C48.5279 16.651 48.5279 16.5611 48.4202 16.4711Z" fill="white"/>
<path d="M49.4607 29.1012L58.2693 44.1601C58.3231 44.25 58.3052 44.322 58.2155 44.394C58.1796 44.43 58.1617 44.43 58.1258 44.43H48.474C48.4202 44.43 48.3664 44.394 48.3305 44.34L42.9305 34.7685C42.8947 34.7145 42.8947 34.6246 42.9664 34.5706L49.2275 29.0832C49.2993 29.0112 49.4069 29.0112 49.4607 29.1012Z" fill="#3AC4A7"/>
</svg>
