<svg width="24" height="24" viewBox="0 0 24 24" fill="none" xmlns="http://www.w3.org/2000/svg">
<g id="fluent:vehicle-truck-cube-20-filled">
<path id="Vector" d="M2.45069 11.8667V17.0999C2.45069 18.2591 3.39149 19.1999 4.55069 19.1999H4.86029C4.998 19.8781 5.36593 20.4878 5.90174 20.9257C6.43755 21.3637 7.10828 21.6029 7.80029 21.6029C8.49231 21.6029 9.16304 21.3637 9.69885 20.9257C10.2347 20.4878 10.6026 19.8781 10.7403 19.1999H12.0603C12.198 19.8781 12.5659 20.4878 13.1017 20.9257C13.6375 21.3637 14.3083 21.6029 15.0003 21.6029C15.6923 21.6029 16.363 21.3637 16.8988 20.9257C17.4347 20.4878 17.8026 19.8781 17.9403 19.1999H19.8003C20.2777 19.1999 20.7355 19.0103 21.0731 18.6727C21.4106 18.3351 21.6003 17.8773 21.6003 17.3999V12.8831C21.6003 12.604 21.5354 12.3288 21.4107 12.0791L19.4691 8.1947C19.3195 7.89568 19.0897 7.64423 18.8052 7.46852C18.5208 7.29281 18.193 7.1998 17.8587 7.1999H16.8003V5.6999C16.8003 5.14294 16.579 4.6088 16.1852 4.21497C15.7914 3.82115 15.2572 3.5999 14.7003 3.5999H12.1923C12.4539 3.9887 12.6015 4.4543 12.6015 4.9415V9.4583C12.6016 9.90396 12.4776 10.3409 12.2434 10.72C12.0092 11.0992 11.674 11.4057 11.2755 11.6051L7.67549 13.4051C7.34222 13.5718 6.97471 13.6585 6.60209 13.6585C6.22947 13.6585 5.86197 13.5718 5.52869 13.4051L2.45069 11.8667ZM16.8003 8.3999H17.8587C17.9702 8.39968 18.0796 8.43055 18.1746 8.48906C18.2695 8.54756 18.3463 8.63138 18.3963 8.7311L20.0307 11.9999H16.8003V8.3999ZM7.80029 16.7999C8.27768 16.7999 8.73552 16.9895 9.07308 17.3271C9.41065 17.6647 9.60029 18.1225 9.60029 18.5999C9.60029 19.0773 9.41065 19.5351 9.07308 19.8727C8.73552 20.2103 8.27768 20.3999 7.80029 20.3999C7.3229 20.3999 6.86507 20.2103 6.5275 19.8727C6.18993 19.5351 6.00029 19.0773 6.00029 18.5999C6.00029 18.1225 6.18993 17.6647 6.5275 17.3271C6.86507 16.9895 7.3229 16.7999 7.80029 16.7999ZM13.2003 18.5999C13.2003 18.3635 13.2469 18.1295 13.3373 17.9111C13.4278 17.6927 13.5604 17.4943 13.7275 17.3271C13.8946 17.16 14.0931 17.0274 14.3115 16.9369C14.5298 16.8465 14.7639 16.7999 15.0003 16.7999C15.2367 16.7999 15.4707 16.8465 15.6891 16.9369C15.9075 17.0274 16.1059 17.16 16.2731 17.3271C16.4402 17.4943 16.5728 17.6927 16.6633 17.9111C16.7537 18.1295 16.8003 18.3635 16.8003 18.5999C16.8003 19.0773 16.6107 19.5351 16.2731 19.8727C15.9355 20.2103 15.4777 20.3999 15.0003 20.3999C14.5229 20.3999 14.0651 20.2103 13.7275 19.8727C13.3899 19.5351 13.2003 19.0773 13.2003 18.5999ZM1.80029 4.9415V9.4583C1.80019 9.6813 1.86222 9.89991 1.97944 10.0896C2.09666 10.2793 2.26441 10.4326 2.46389 10.5323L6.06389 12.3323C6.23045 12.4155 6.4141 12.4589 6.60029 12.4589C6.78649 12.4589 6.97013 12.4155 7.13669 12.3323L10.7367 10.5323C10.9362 10.4326 11.1039 10.2793 11.2211 10.0896C11.3384 9.89991 11.4004 9.6813 11.4003 9.4583V4.9415C11.4002 4.7187 11.338 4.50034 11.2208 4.31087C11.1036 4.12139 10.936 3.96829 10.7367 3.8687L7.13669 2.0687C6.97013 1.98547 6.78649 1.94214 6.60029 1.94214C6.4141 1.94214 6.23045 1.98547 6.06389 2.0687L2.46389 3.8687C2.2646 3.96829 2.09696 4.12139 1.97976 4.31087C1.86255 4.50034 1.80041 4.7187 1.80029 4.9415ZM3.83309 4.8479L6.60029 6.0155L9.36749 4.8479C9.5119 4.7962 9.67063 4.80177 9.81107 4.86346C9.9515 4.92516 10.063 5.0383 10.1226 5.17963C10.1822 5.32096 10.1854 5.47976 10.1316 5.62339C10.0777 5.76702 9.97091 5.88457 9.83309 5.9519L7.20029 7.0655V10.1999C7.20029 10.359 7.13708 10.5116 7.02456 10.6242C6.91203 10.7367 6.75942 10.7999 6.60029 10.7999C6.44116 10.7999 6.28855 10.7367 6.17603 10.6242C6.06351 10.5116 6.00029 10.359 6.00029 10.1999V7.0643L3.36749 5.9531C3.29221 5.92443 3.22348 5.8809 3.16538 5.8251C3.10729 5.76929 3.06102 5.70237 3.02935 5.6283C2.99767 5.55424 2.98124 5.47455 2.98102 5.394C2.9808 5.31344 2.99681 5.23367 3.02808 5.15944C3.05936 5.0852 3.10526 5.01802 3.16305 4.96191C3.22085 4.90579 3.28935 4.86189 3.36447 4.83282C3.43959 4.80375 3.5198 4.7901 3.60032 4.79269C3.68083 4.79528 3.75999 4.81406 3.83309 4.8479Z" fill="#3AC4A7"/>
</g>
</svg>
