<svg width="24" height="24" viewBox="0 0 24 24" fill="none" xmlns="http://www.w3.org/2000/svg">
<g id="fluent:vehicle-truck-profile-20-filled">
<path id="Vector" d="M2.4502 7.69985C2.4502 6.54065 3.391 5.59985 4.5502 5.59985H12.061H15.5H16.801H17.941H19C19 5.59985 19.5 5.59985 19.801 5.59985C20.8426 5.59985 21.601 6.80159 21.601 7.69985C21.601 8.59812 21.601 10 21.601 10V12.8819V17.3999C21.601 17.8772 21.4114 18.3351 21.0738 18.6726C20.7362 19.0102 20.2784 19.1999 19.801 19.1999H19C18.8623 19.878 18.4944 20.4877 17.9586 20.9257C17.4227 21.3636 16.752 21.6029 16.06 21.6029C15.368 21.6029 14.6973 21.3636 14.1614 20.9257C13.6256 20.4877 13.2577 19.878 13.12 19.1999H10.741C10.6033 19.878 10.2354 20.4877 9.69955 20.9257C9.16374 21.3636 8.49301 21.6029 7.80099 21.6029C7.10898 21.6029 6.43825 21.3636 5.90244 20.9257C5.36663 20.4877 4.9987 19.878 4.861 19.1999H4.5502C3.99324 19.1999 3.4591 18.9786 3.06527 18.5848C2.67144 18.191 2.4502 17.6568 2.4502 17.0999V7.69985ZM7.80099 16.7999C7.3236 16.7999 6.86577 16.9895 6.5282 17.3271C6.19064 17.6646 6.00099 18.1225 6.00099 18.5999C6.00099 19.0772 6.19064 19.5351 6.5282 19.8726C6.86577 20.2102 7.3236 20.3999 7.80099 20.3999C8.27838 20.3999 8.73622 20.2102 9.07379 19.8726C9.41135 19.5351 9.601 19.0772 9.601 18.5999C9.601 18.1225 9.41135 17.6646 9.07379 17.3271C8.73622 16.9895 8.27838 16.7999 7.80099 16.7999ZM14.26 18.5999C14.26 19.0772 14.4496 19.5351 14.7872 19.8726C15.1248 20.2102 15.5826 20.3999 16.06 20.3999C16.5374 20.3999 16.9952 20.2102 17.3328 19.8726C17.6704 19.5351 17.86 19.0772 17.86 18.5999C17.86 18.1225 17.6704 17.6646 17.3328 17.3271C16.9952 16.9895 16.5374 16.7999 16.06 16.7999C15.5826 16.7999 15.1248 16.9895 14.7872 17.3271C14.4496 17.6646 14.26 18.1225 14.26 18.5999Z" fill="#3AC4A7"/>
</g>
</svg>
