<svg width="24" height="24" viewBox="0 0 24 24" fill="none" xmlns="http://www.w3.org/2000/svg">
<g id="fluent:vehicle-truck-profile-20-filled">
<path id="Vector" d="M2.4502 5.7001C2.4502 4.5409 3.391 3.6001 4.5502 3.6001H14.701C15.8602 3.6001 16.801 4.5409 16.801 5.7001V7.2001H17.8582C18.1927 7.20011 18.5205 7.2933 18.8049 7.46923C19.0894 7.64516 19.3192 7.89686 19.4686 8.1961L21.4102 12.0781C21.5353 12.3277 21.6006 12.6029 21.601 12.8821V17.4001C21.601 17.8775 21.4114 18.3353 21.0738 18.6729C20.7362 19.0105 20.2784 19.2001 19.801 19.2001H17.941C17.8033 19.8783 17.4354 20.488 16.8995 20.9259C16.3637 21.3639 15.693 21.6031 15.001 21.6031C14.309 21.6031 13.6382 21.3639 13.1024 20.9259C12.5666 20.488 12.1987 19.8783 12.061 19.2001H10.741C10.6033 19.8783 10.2354 20.488 9.69955 20.9259C9.16374 21.3639 8.49301 21.6031 7.80099 21.6031C7.10898 21.6031 6.43825 21.3639 5.90244 20.9259C5.36663 20.488 4.9987 19.8783 4.861 19.2001H4.5502C3.99324 19.2001 3.4591 18.9788 3.06527 18.585C2.67144 18.1912 2.4502 17.6571 2.4502 17.1001V5.7001ZM16.801 8.4001V12.0001H20.029L18.3958 8.7313C18.3459 8.63176 18.2693 8.54807 18.1746 8.48957C18.0799 8.43108 17.9707 8.4001 17.8594 8.4001H16.7998H16.801ZM7.80099 16.8001C7.3236 16.8001 6.86577 16.9897 6.5282 17.3273C6.19064 17.6649 6.00099 18.1227 6.00099 18.6001C6.00099 19.0775 6.19064 19.5353 6.5282 19.8729C6.86577 20.2105 7.3236 20.4001 7.80099 20.4001C8.27838 20.4001 8.73622 20.2105 9.07379 19.8729C9.41135 19.5353 9.601 19.0775 9.601 18.6001C9.601 18.1227 9.41135 17.6649 9.07379 17.3273C8.73622 16.9897 8.27838 16.8001 7.80099 16.8001ZM13.201 18.6001C13.201 19.0775 13.3906 19.5353 13.7282 19.8729C14.0658 20.2105 14.5236 20.4001 15.001 20.4001C15.4784 20.4001 15.9362 20.2105 16.2738 19.8729C16.6114 19.5353 16.801 19.0775 16.801 18.6001C16.801 18.1227 16.6114 17.6649 16.2738 17.3273C15.9362 16.9897 15.4784 16.8001 15.001 16.8001C14.5236 16.8001 14.0658 16.9897 13.7282 17.3273C13.3906 17.6649 13.201 18.1227 13.201 18.6001Z" fill="#3AC4A7"/>
</g>
</svg>
