<svg width="37" height="23" fill="none" xmlns="http://www.w3.org/2000/svg"><path fill-rule="evenodd" clip-rule="evenodd" d="M36.486 1.366H0V0h36.486v1.366zM0 5.351V3.985h36.486v1.366H5.516v2.46L7.14 6.524a.683.683 0 01.848 1.071L5.516 9.553v2.379L8.4 9.707a.683.683 0 01.835 1.081l-3.72 2.87v4.446h30.971v1.366H0v-1.366h4.15v-4.44l-3.826-2.87a.683.683 0 01.82-1.093l3.005 2.254v-2.41L1.78 7.586a.683.683 0 11.87-1.053l1.5 1.24V5.35H0zM36.486 23H0v-1.366h36.486V23z" fill="#CDE4E0"/><path d="M30.288 11.159L28.434 6.8a.62.62 0 00-.569-.38h-1.854V5.178a.625.625 0 00-.181-.44.616.616 0 00-.437-.183H13.649a.616.616 0 00-.437.183.625.625 0 00-.181.44V15.76a.616.616 0 00.618.623h1.322a2.5 2.5 0 00.885 1.324 2.46 2.46 0 003.003 0c.431-.332.742-.798.884-1.325h3.882c.142.527.453.993.884 1.325a2.461 2.461 0 003.003 0c.432-.332.742-.798.885-1.325h1.322a.616.616 0 00.618-.623v-4.357a.627.627 0 00-.049-.242zm-4.277-3.492h1.446l1.323 3.112h-2.77V7.667zm-8.654 9.336a1.23 1.23 0 01-1.142-.768 1.253 1.253 0 01.268-1.357 1.233 1.233 0 012.11.88c0 .33-.13.647-.362.88a1.231 1.231 0 01-.874.365zm6.268-1.867h-3.882a2.49 2.49 0 00-.884-1.325 2.46 2.46 0 00-3.003 0 2.49 2.49 0 00-.885 1.325h-.704V5.8h10.508v7.818a2.477 2.477 0 00-1.15 1.52zm2.386 1.867a1.23 1.23 0 01-1.142-.768 1.253 1.253 0 01.268-1.357 1.233 1.233 0 012.11.88c0 .33-.13.647-.362.88a1.232 1.232 0 01-.874.365zm3.09-1.867h-.704a2.492 2.492 0 00-.877-1.343 2.462 2.462 0 00-1.51-.524v-1.245h3.091v3.112z" fill="#CDE4E0"/></svg>