<svg viewBox="0 0 172 104" xmlns="http://www.w3.org/2000/svg" xmlns:xlink="http://www.w3.org/1999/xlink"><style>:root&gt;svg{display:none}:root&gt;svg:target{display:block}</style><svg fill="none" viewBox="0 0 98 103" id="sprite--adv-1" xmlns="http://www.w3.org/2000/svg"><path d="M18.224 101H6.125a4 4 0 01-4-4V37.304a4 4 0 011.623-3.218L46.173 2.74a4 4 0 014.723-.023l43.325 31.372a4 4 0 011.654 3.24V97a4 4 0 01-4 4H80.724m-62.5 0V45.952a4 4 0 014-4h54.5a4 4 0 014 4v9.334M18.224 101h16.098m46.401 0V78.143m0 22.857h-23.2m-23.201 0V82.143a4 4 0 014-4h19.2M34.323 101h23.2m23.202-22.857H57.523m23.2 0V55.286M57.523 101V78.143m0 0V59.286a4 4 0 014-4h19.2" stroke="#2E9D86" stroke-width="3"/></svg><svg fill="none" viewBox="0 0 98 104" id="sprite--adv-2" xmlns="http://www.w3.org/2000/svg"><path d="M69.954 41.078v56.756s0 0 0 0 0 4.166-4.448 4.166H7.129c-5.004 0-5.004-4.166-5.004-4.166s0 0 0 0V28.581s0 0 0 0 0-5.728 5.004-5.728h50.593m12.232 18.225L49.556 58.633a1 1 0 01-.394.208l-19.238 5.148m40.03-22.911l16.679-15.621m-56.71 38.532L33.17 51.49m-3.246 12.5H13.8m16.123 0h27.8m0-41.136l13.142-11.976M57.722 22.853l-15.739 15.1m28.882-27.076l7.394-6.738a.773.773 0 00.064-.064c.327-.344 3.216-3.263 5.53-1.53 5.56 4.166 8.34 7.29 11.12 10.415 2.263 2.544-.428 5.087-.552 5.203l-.01.01-7.778 7.284m-15.768-14.58l15.768 14.58M13.8 37.953h28.183m0 0l-6.851 6.574a1 1 0 00-.276.47L33.17 51.49m-19.369 0h19.37M13.8 76.485h43.922M13.8 89.502h43.922" stroke="#2E9D86" stroke-width="3" stroke-linecap="round"/></svg><svg fill="none" viewBox="0 0 120 104" id="sprite--adv-3" xmlns="http://www.w3.org/2000/svg"><path d="M45.938 82.667c0 10.677-8.115 19.333-18.126 19.333-10.01 0-18.125-8.656-18.125-19.333m36.25 0c0-10.678-8.114-19.334-18.124-19.334-10.01 0-18.125 8.656-18.125 19.334m36.25 0h26.25m-62.5 0H2.811c-.69 0-1.25-.597-1.25-1.334v-78c0-.736.56-1.333 1.25-1.333h82.5c.69 0 1.25.597 1.25 1.333v11.334m21.876 68c0 10.677-8.115 19.333-18.126 19.333-10.01 0-18.124-8.656-18.124-19.333m36.25 0c0-10.678-8.115-19.334-18.126-19.334-1.285 0-2.54.143-3.75.415m21.876 18.919h8.75c.69 0 1.25-.597 1.25-1.334v-32m-46.25 33.334c0-9.306 6.164-17.077 14.374-18.92m0-49.08h16.076c.487 0 .93.302 1.135.774l14.665 33.892M86.562 14.667v34.666m31.876 0H86.562m0 0v14.415" stroke="#2E9D86" stroke-width="3"/></svg><svg fill="none" viewBox="0 0 64 65" id="sprite--arrow_swiper" xmlns="http://www.w3.org/2000/svg"><circle cx="32" cy="32.5" r="31.5" stroke="#2E9D86"/><path d="M39.24 31.775l-11.146-10.62a1 1 0 00-1.38 0l-.012.012a.918.918 0 000 1.334l10.496 10-10.496 9.996a.919.919 0 000 1.334l.012.012a1 1 0 001.38 0l11.146-10.62a1 1 0 000-1.448z" fill="#2E9D86"/></svg><svg fill="none" viewBox="0 0 32 32" id="sprite--contacts_location" xmlns="http://www.w3.org/2000/svg"><path d="M16 15.333a3.333 3.333 0 110-6.666 3.333 3.333 0 010 6.666zm0-12.666A9.333 9.333 0 006.667 12C6.667 19 16 29.333 16 29.333S25.333 19 25.333 12A9.333 9.333 0 0016 2.667z" fill="#3AC4A7"/></svg><svg fill="none" viewBox="0 0 32 32" id="sprite--contacts_tel" xmlns="http://www.w3.org/2000/svg"><path d="M25.988 21.863A5.908 5.908 0 0120.12 27C11.783 27 5 20.217 5 11.88a5.907 5.907 0 015.137-5.868 1.68 1.68 0 011.745 1l2.217 4.95v.013a1.68 1.68 0 01-.133 1.585 1.147 1.147 0 01-.06.08l-2.186 2.592c.787 1.598 2.458 3.255 4.077 4.044l2.556-2.175a1.68 1.68 0 011.672-.206l.013.007 4.947 2.216a1.68 1.68 0 011.003 1.745z" fill="#3AC4A7"/></svg><svg fill="none" viewBox="0 0 32 32" id="sprite--contacts_time" xmlns="http://www.w3.org/2000/svg"><g clip-path="url(#gclip0_301_464)"><path d="M16 2.667c7.364 0 13.333 5.969 13.333 13.333S23.364 29.333 16 29.333 2.667 23.364 2.667 16 8.637 2.667 16 2.667zM16 8a1.333 1.333 0 00-1.333 1.333V16c0 .354.14.693.39.943l4 4a1.334 1.334 0 001.886-1.886l-3.61-3.609V9.333A1.334 1.334 0 0016 8z" fill="#3AC4A7"/></g><defs><clipPath id="gclip0_301_464"><path fill="#fff" d="M0 0h32v32H0z"/></clipPath></defs></svg><svg fill="none" viewBox="0 0 172 45" id="sprite--footer_logo" xmlns="http://www.w3.org/2000/svg"><g fill="#fff" clip-path="url(#hclip0_301_1092)"><path d="M65.867 41.345v-.648h3.223v.648h-1.25v3.294h-.705v-3.294h-1.268zm5.812 3.295h-.706v-3.943h1.105c.27 0 .506.036.724.108a.948.948 0 01.47.288c.109.108.2.252.254.396.054.144.09.306.09.486 0 .36-.145.648-.398.9-.254.252-.616.36-1.068.36-.218 0-.399 0-.507-.036v1.44h.036zm.489-3.313h-.507v1.206c.163.036.344.036.47.036.218 0 .399-.054.526-.162.145-.108.199-.252.199-.486.018-.396-.2-.594-.688-.594zm2.697 3.313l1.648-3.943h.616l1.647 3.942h-.724l-.416-1.008h-1.684l-.417 1.008h-.67zm1.92-3.06l-.58 1.403h1.14l-.56-1.404zm6.373 3.06v-1.693h-1.793v1.692h-.706v-3.942h.706V42.3h1.793v-1.602h.67v3.942h-.67zm5.775-.901l.254.504c-.109.144-.308.216-.525.306-.218.09-.471.108-.725.108-.579 0-1.086-.198-1.448-.558-.362-.36-.561-.864-.561-1.458s.163-1.062.525-1.458c.362-.396.833-.558 1.484-.558.507 0 .888.144 1.195.396l-.307.504a1.647 1.647 0 00-.888-.252c-.362 0-.67.108-.923.36s-.362.594-.362 1.008c0 .414.145.738.398.99.254.252.58.396.978.396.326.036.634-.09.905-.288zm4.707.901v-3.295h-1.737v3.294h-.707v-3.942h3.133v3.942h-.688zm2.789-1.963c0-.594.2-1.062.561-1.458a1.96 1.96 0 011.449-.594c.579 0 1.086.198 1.448.558.362.36.579.864.579 1.458s-.199 1.062-.579 1.458c-.398.396-.869.558-1.448.558-.58 0-1.069-.198-1.449-.558-.362-.36-.561-.828-.561-1.422zm.724 0c0 .396.145.738.362.99.254.252.561.396.924.396.398 0 .724-.144.941-.396.217-.252.362-.594.362-.99s-.145-.738-.362-.99a1.288 1.288 0 00-.941-.396c-.362 0-.706.144-.924.396a1.47 1.47 0 00-.362.99zm6.156 1.963h-.706v-3.943h1.104c.272 0 .507.036.724.108.2.054.363.162.471.288.109.126.199.252.254.396.054.144.09.306.09.486 0 .36-.145.648-.398.9-.254.252-.616.36-1.068.36-.218 0-.399 0-.507-.036v1.44h.036zm.471-3.313h-.507v1.206c.163.036.344.036.47.036.218 0 .399-.054.525-.162.145-.108.2-.252.2-.486.036-.396-.218-.594-.688-.594zm2.987.018v-.648h3.223v.648h-1.249v3.294h-.707v-3.294h-1.267zm7.604 3.295v-1.693h-1.792v1.692h-.688v-3.942h.706V42.3h1.792v-1.602h.67v3.942h-.688zm2.607 0l1.648-3.943h.615l1.648 3.942h-.724l-.417-1.008h-1.683l-.417 1.008h-.67zm1.919-3.06l-.579 1.403h1.141l-.562-1.404zm5.649 3.06v-1.35h-.561l-.869 1.35h-.779l1.014-1.495a1.894 1.894 0 01-.507-.414c-.144-.162-.199-.396-.199-.648 0-.396.145-.738.399-.99.271-.252.669-.396 1.194-.396h.978v3.942h-.67zm-.652-2.017h.616v-1.296c-.199 0-.344-.036-.416-.036-.218 0-.399.054-.525.198-.145.108-.2.288-.2.486 0 .162.055.306.163.414a.833.833 0 00.362.234zm6.211 2.017v-3.943h.706v1.854l1.539-1.854h.833l-1.63 1.836 1.702 2.106h-.869l-1.593-2.034v2.034h-.688zm4.58-1.963c0-.594.199-1.062.562-1.458a1.958 1.958 0 011.448-.594c.579 0 1.086.198 1.448.558.363.36.58.864.58 1.458a2 2 0 01-.58 1.458c-.38.396-.869.558-1.448.558s-1.068-.198-1.448-.558c-.399-.36-.562-.828-.562-1.422zm.725 0c0 .396.144.738.362.99.253.252.561.396.923.396.398 0 .724-.144.941-.396.218-.252.363-.594.363-.99s-.145-.738-.363-.99a1.287 1.287 0 00-.941-.396c-.362 0-.706.144-.923.396a1.467 1.467 0 00-.362.99zm5.449 1.963v-3.943h.706l1.34 1.836 1.286-1.836h.633v3.942h-.67v-2.844l-1.231 1.746h-.109l-1.249-1.746v2.844h-.706zm8.781 0v-3.295h-1.738v3.294h-.706v-3.942h3.132v3.942h-.688zm2.571 0l1.648-3.943h.615l1.648 3.942h-.724l-.417-1.008h-1.684l-.416 1.008h-.67zm1.956-3.06l-.58 1.403h1.141l-.561-1.404zm6.336 3.06v-1.693h-1.792v1.692h-.706v-3.942h.706V42.3h1.792v-1.602h.67v3.942h-.67zm3.694 0h-.616v-3.943h.706v2.808l2.046-2.808h.616v3.942h-.706v-2.79l-2.046 2.79zm6.898 0v-1.35h-.543l-.869 1.35h-.779l1.014-1.495a1.894 1.894 0 01-.507-.414c-.145-.162-.199-.396-.199-.648 0-.396.145-.738.398-.99.272-.252.67-.396 1.195-.396h.978v3.942h-.688zm-.634-2.017h.616v-1.296c-.199 0-.344-.036-.417-.036-.217 0-.398.054-.525.198-.144.108-.199.288-.199.486 0 .162.055.306.163.414a.672.672 0 00.362.234zm-21.78-29.393c0-.163.126-.289.289-.289h5.197c.163 0 .289.126.289.288v6.552h11.551V13.23c0-.162.127-.288.29-.288h5.196c.163 0 .29.126.29.288v18.774a.285.285 0 01-.29.288h-5.196a.285.285 0 01-.29-.288v-7.686h-10.428a.272.272 0 01-.272-.198l-.833-2.574v10.458a.285.285 0 01-.289.288h-5.197a.285.285 0 01-.289-.288V13.23h-.018z"/><path fill-rule="evenodd" clip-rule="evenodd" d="M134.504 12.941c1.358 0 2.263.936 2.553 1.422l8.89 17.532c.09.198-.036.414-.254.414h-5.612a.274.274 0 01-.254-.162l-1.502-2.97h-6.989a.273.273 0 01-.272-.198l-1.249-3.672-3.476 6.84c-.054.09-.145.162-.254.162h-5.612c-.218 0-.344-.216-.254-.414l9.524-18.774c.054-.09.144-.162.253-.162h4.508v-.018zm-4.508 11.97h6.156l-3.078-6.066-3.078 6.066z"/><path d="M115.15 12.941c-2.426 0-4.074.882-4.798 1.476L100.141 24.48V13.23a.285.285 0 00-.29-.288h-5.196a.285.285 0 00-.29.288v18.774c0 .162.127.288.29.288h2.028c2.498 0 4.182-.936 4.87-1.53l10.139-9.99v11.25c0 .162.126.288.289.288h5.197a.285.285 0 00.289-.288V13.23a.285.285 0 00-.289-.288h-2.028z"/><path fill-rule="evenodd" clip-rule="evenodd" d="M80.188 12.941c1.358 0 2.263.936 2.553 1.422l8.89 17.532c.09.198-.036.414-.254.414h-5.612a.273.273 0 01-.254-.162l-1.502-2.97H77.02a.272.272 0 01-.272-.198L75.5 25.307l-3.476 6.84c-.054.09-.145.162-.254.162h-5.612c-.218 0-.344-.216-.254-.414l9.524-18.774c.054-.09.144-.162.253-.162h4.508v-.018zm-4.508 11.97h6.156l-3.078-6.066-3.078 6.066z"/><path d="M32.861 17.334L21.04 37.296c-.037.036-.037.054-.055.054L8.926 41.4c-.054.036-.145 0-.145-.09v-.108L32.898.18c.036-.054.108-.09.162-.036.037 0 .037.036.037.036l11.37 19.368c.036.054.036.108-.036.144l-6.066 6.192c-.054.054-.108.054-.18 0 0 0 0-.036-.037-.036l-5.106-8.55c-.036-.054-.108-.09-.163-.036.019.054-.018.054-.018.072z"/><path d="M49.084 16.596l-4.273-3.15c-.054-.054-.09-.144-.036-.198.036-.036.054-.054.09-.054l12.348-2.358c.2-.036.308.054.308.252l.832 13.104c0 .054-.036.09-.09.09-.036 0-.036 0-.054-.036l-4.074-3.366c-.09-.09-.181-.054-.235.036-.924 1.08-1.829 2.16-2.734 3.168C38.402 38.628 19.826 46.116.272 45.036c-.036 0-.054-.036-.054-.054 0-.018.036-.054.054-.054 13.29-1.818 26.47-7.164 36.772-15.732 4.454-3.708 8.636-7.614 12.058-12.294.09-.126.09-.216-.018-.306z"/><path d="M50.134 29.232l8.89 15.066c.054.09.035.162-.055.234-.036.036-.054.036-.09.036h-9.741c-.054 0-.109-.036-.145-.09l-5.45-9.576a.146.146 0 01.037-.198l6.318-5.49c.073-.072.181-.072.236.018z"/></g><defs><clipPath id="hclip0_301_1092"><path fill="#fff" d="M0 0h172v45H0z"/></clipPath></defs></svg><svg fill="none" viewBox="0 0 32 32" id="sprite--footer_mail" xmlns="http://www.w3.org/2000/svg"><path fill-rule="evenodd" clip-rule="evenodd" d="M7.367 27.07a3.7 3.7 0 01-3.7-3.7V11.033a3.7 3.7 0 013.7-3.7h17.27a3.7 3.7 0 013.7 3.7V23.37a3.7 3.7 0 01-3.7 3.701H7.366zm3.238-14.53a1.234 1.234 0 10-1.542 1.924l4.626 3.701a3.7 3.7 0 004.626 0l4.625-3.7a1.235 1.235 0 00-1.542-1.927l-4.625 3.7a1.233 1.233 0 01-1.542 0l-4.626-3.7v.001z" fill="#3AC4A7"/></svg><svg fill="none" viewBox="0 0 32 32" id="sprite--footer_tel" xmlns="http://www.w3.org/2000/svg"><path d="M25.988 21.863A5.908 5.908 0 0120.12 27C11.783 27 5 20.217 5 11.88a5.907 5.907 0 015.137-5.868 1.68 1.68 0 011.745 1l2.217 4.95v.013a1.68 1.68 0 01-.133 1.585 1.147 1.147 0 01-.06.08l-2.186 2.592c.787 1.598 2.458 3.255 4.077 4.044l2.556-2.175a1.68 1.68 0 011.672-.206l.013.007 4.947 2.216a1.68 1.68 0 011.003 1.745z" fill="#3AC4A7"/></svg><svg fill="none" viewBox="0 0 24 24" id="sprite--icon-wa" xmlns="http://www.w3.org/2000/svg"><path d="M19.05 4.91A9.816 9.816 0 0012.04 2c-5.46 0-9.91 4.45-9.91 9.91 0 1.75.46 3.45 1.32 4.95L2.05 22l5.25-1.38c1.45.79 3.08 1.21 4.74 1.21 5.46 0 9.91-4.45 9.91-9.91 0-2.65-1.03-5.14-2.9-7.01zm-7.01 15.24c-1.48 0-2.93-.4-4.2-1.15l-.3-.18-3.12.82.83-3.04-.2-.31a8.264 8.264 0 01-1.26-4.38c0-4.54 3.7-8.24 8.24-8.24 2.2 0 4.27.86 5.82 2.42a8.183 8.183 0 012.41 5.83c.02 4.54-3.68 8.23-8.22 8.23zm4.52-6.16c-.25-.12-1.47-.72-1.69-.81-.23-.08-.39-.12-.56.12-.17.25-.64.81-.78.97-.14.17-.29.19-.54.06-.25-.12-1.05-.39-1.99-1.23-.74-.66-1.23-1.47-1.38-1.72-.14-.25-.02-.38.11-.51.11-.11.25-.29.37-.43s.17-.25.25-.41c.08-.17.04-.31-.02-.43s-.56-1.34-.76-1.84c-.2-.48-.41-.42-.56-.43h-.48c-.17 0-.43.06-.66.31-.22.25-.86.85-.86 2.07 0 1.22.89 2.4 1.01 2.56.12.17 1.75 2.67 4.23 3.74.59.26 1.05.41 1.41.52.59.19 1.13.16 1.56.1.48-.07 1.47-.6 1.67-1.18.21-.58.21-1.07.14-1.18-.07-.11-.22-.16-.47-.28z" fill="#0B7075"/></svg><svg fill="none" viewBox="0 0 170 45" id="sprite--logo" xmlns="http://www.w3.org/2000/svg"><path d="M65.05 41.21v-.648h3.194v.647h-1.238v3.293h-.7v-3.293h-1.255zm5.76 3.292h-.7v-3.94h1.094c.27 0 .502.035.718.108a.942.942 0 01.466.287c.108.108.197.252.251.396.054.144.09.306.09.486 0 .36-.144.648-.395.9-.251.251-.61.36-1.058.36-.216 0-.395 0-.503-.037v1.44h.036zm.484-3.31h-.503v1.205c.162.036.341.036.467.036.215 0 .395-.054.52-.162.144-.108.197-.252.197-.486.018-.396-.197-.594-.681-.594zm2.673 3.31l1.632-3.94h.61l1.633 3.94h-.718l-.412-1.008h-1.669l-.412 1.008h-.664zm1.901-3.059l-.574 1.403h1.13l-.556-1.403zm6.315 3.059V42.81h-1.776v1.692h-.7v-3.94h.7v1.6h1.776v-1.6h.664v3.94h-.663zm5.723-.899l.251.503c-.107.145-.304.216-.52.306-.215.09-.466.108-.717.108-.575 0-1.077-.198-1.436-.557-.358-.36-.556-.864-.556-1.458 0-.593.162-1.061.52-1.457.36-.396.826-.558 1.472-.558.502 0 .879.144 1.184.396l-.305.504a1.621 1.621 0 00-.88-.252c-.358 0-.663.108-.914.36s-.36.594-.36 1.007c0 .414.144.738.395.99.252.252.575.396.97.396.322.036.627-.09.896-.288zm4.664.899v-3.293h-1.72v3.293h-.7v-3.94h3.104v3.94h-.682zm2.764-1.961c0-.593.197-1.061.556-1.457a1.933 1.933 0 011.435-.594c.574 0 1.076.198 1.435.558.359.36.574.864.574 1.457 0 .594-.197 1.062-.574 1.458-.395.395-.861.557-1.435.557a2.018 2.018 0 01-1.435-.557c-.36-.36-.556-.828-.556-1.422zm.717 0c0 .396.144.738.359.99.251.252.556.396.915.396.394 0 .718-.144.933-.396.215-.252.359-.594.359-.99 0-.395-.144-.737-.36-.99a1.271 1.271 0 00-.932-.395c-.359 0-.7.144-.915.396a1.478 1.478 0 00-.359.99zm6.1 1.961h-.7v-3.94h1.095c.269 0 .502.035.717.108a.947.947 0 01.467.287c.107.126.197.252.251.396.054.144.089.306.089.486 0 .36-.143.648-.394.9-.251.251-.61.36-1.059.36-.215 0-.394 0-.502-.037v1.44h.036zm.466-3.31h-.502v1.205c.161.036.341.036.466.036.216 0 .395-.054.521-.162.143-.108.197-.252.197-.486.036-.396-.215-.594-.682-.594zm2.96.018v-.648h3.193v.647h-1.237v3.293h-.7v-3.293h-1.256zm7.535 3.292V42.81h-1.776v1.692h-.682v-3.94h.7v1.6h1.776v-1.6h.664v3.94h-.682zm2.583 0l1.633-3.94h.61l1.632 3.94h-.717l-.413-1.008h-1.668l-.413 1.008h-.664zm1.902-3.059l-.574 1.403h1.13l-.556-1.403zm5.597 3.059v-1.35h-.556l-.861 1.35h-.771l1.004-1.494a1.872 1.872 0 01-.502-.413c-.144-.162-.197-.396-.197-.648 0-.396.143-.738.394-.99.269-.252.664-.395 1.184-.395h.969v3.94h-.664zm-.646-2.015h.61V41.19c-.197 0-.34-.036-.412-.036-.215 0-.395.054-.52.198-.144.108-.198.288-.198.486a.57.57 0 00.162.414.817.817 0 00.358.234zm6.154 2.015v-3.94h.7v1.853l1.524-1.853h.826l-1.615 1.835 1.686 2.105h-.861l-1.578-2.033v2.033h-.682zm4.539-1.961c0-.593.197-1.061.556-1.457a1.933 1.933 0 011.435-.594c.574 0 1.076.198 1.435.558.359.36.574.864.574 1.457a2.01 2.01 0 01-.574 1.458c-.376.395-.861.557-1.435.557a2.018 2.018 0 01-1.435-.557c-.395-.36-.556-.828-.556-1.422zm.717 0c0 .396.144.738.359.99.251.252.556.396.915.396.395 0 .718-.144.933-.396.215-.252.359-.594.359-.99a1.52 1.52 0 00-.359-.99 1.27 1.27 0 00-.933-.395c-.359 0-.7.144-.915.396a1.48 1.48 0 00-.359.99zm5.4 1.961v-3.94h.7l1.328 1.835 1.273-1.835h.628v3.94h-.664v-2.843l-1.219 1.745h-.108l-1.238-1.745v2.843h-.7zm8.701 0v-3.293h-1.722v3.293h-.7v-3.94h3.104v3.94h-.682zm2.548 0l1.632-3.94h.61l1.633 3.94h-.718l-.412-1.008h-1.669l-.412 1.008h-.664zm1.937-3.059l-.574 1.403h1.131l-.557-1.403zm6.279 3.059V42.81h-1.776v1.692h-.699v-3.94h.699v1.6h1.776v-1.6h.664v3.94h-.664zm3.66 0h-.61v-3.94h.7v2.806l2.027-2.806h.61v3.94h-.7v-2.789l-2.027 2.789zm6.835 0v-1.35h-.538l-.861 1.35h-.772l1.005-1.494a1.872 1.872 0 01-.502-.413c-.144-.162-.198-.396-.198-.648 0-.396.144-.738.395-.99.269-.252.664-.395 1.184-.395H170v3.94h-.682zm-.628-2.015h.61V41.19c-.197 0-.341-.036-.412-.036-.216 0-.395.054-.521.198-.143.108-.197.288-.197.486a.57.57 0 00.162.414.659.659 0 00.358.234z" fill="#fff"/><path d="M147.108 13.106c0-.162.126-.288.287-.288h5.149c.162 0 .287.126.287.288v6.55h11.446v-6.55c0-.162.126-.288.287-.288h5.149c.161 0 .287.126.287.288v18.765a.284.284 0 01-.287.288h-5.149a.284.284 0 01-.287-.288V24.19h-10.333a.27.27 0 01-.27-.198l-.825-2.573v10.453a.283.283 0 01-.287.288h-5.149a.284.284 0 01-.287-.288V13.106h-.018z" fill="#3AC4A7"/><path fill-rule="evenodd" clip-rule="evenodd" d="M133.061 12.818c1.346 0 2.243.936 2.53 1.422l8.809 17.523c.089.198-.036.414-.252.414h-5.561a.27.27 0 01-.251-.162l-1.489-2.968h-6.925a.27.27 0 01-.269-.198l-1.238-3.67-3.445 6.836c-.053.09-.143.162-.251.162h-5.561c-.215 0-.341-.216-.251-.413l9.436-18.766c.054-.09.144-.162.251-.162h4.467v-.018zm-4.467 11.965h6.1l-3.05-6.063-3.05 6.063z" fill="#3AC4A7"/><path d="M113.884 12.818c-2.404 0-4.037.882-4.755 1.476L99.011 24.35V13.106a.284.284 0 00-.287-.288h-5.149a.284.284 0 00-.287.288v18.765c0 .162.126.288.287.288h2.01c2.475 0 4.144-.935 4.826-1.529l10.046-9.985v11.244c0 .162.126.288.287.288h5.149a.284.284 0 00.287-.288V13.106a.284.284 0 00-.287-.288h-2.009z" fill="#3AC4A7"/><path fill-rule="evenodd" clip-rule="evenodd" d="M79.241 12.818c1.346 0 2.243.936 2.53 1.422l8.808 17.523c.09.198-.036.414-.25.414h-5.562a.27.27 0 01-.251-.162l-1.49-2.968h-6.924a.27.27 0 01-.27-.198l-1.237-3.67-3.445 6.836c-.054.09-.143.162-.251.162h-5.561c-.216 0-.341-.216-.252-.413l9.437-18.766c.054-.09.143-.162.251-.162h4.467v-.018zm-4.467 11.965h6.1l-3.05-6.063-3.05 6.063z" fill="#3AC4A7"/><path d="M32.346 17.209L20.63 37.16c-.036.036-.036.054-.054.054L8.63 41.263c-.054.036-.143 0-.143-.09v-.108L32.382.063c.036-.054.107-.09.161-.036.036 0 .036.036.036.036l11.267 19.359c.035.054.035.107-.036.143l-6.01 6.19c-.054.054-.108.054-.18 0 0 0 0-.036-.036-.036l-5.059-8.546c-.036-.054-.107-.09-.161-.036.018.054-.018.054-.018.072z" fill="#3AC4A7"/><path d="M48.42 16.471l-4.234-3.148c-.053-.054-.09-.144-.035-.198.035-.036.053-.054.09-.054l12.234-2.357c.198-.036.305.054.305.252l.825 13.098c0 .053-.035.09-.09.09-.035 0-.035 0-.053-.037l-4.037-3.364c-.09-.09-.179-.054-.233.036-.915 1.08-1.812 2.16-2.709 3.167C37.836 38.493 19.43 45.977.053 44.898c-.035 0-.053-.036-.053-.054 0-.018.036-.054.054-.054 13.168-1.817 26.228-7.16 36.436-15.725 4.413-3.706 8.557-7.61 11.948-12.288.09-.126.09-.216-.018-.306z" fill="#fff"/><path d="M49.46 29.101l8.81 15.06c.053.089.035.161-.055.233-.035.036-.053.036-.09.036h-9.651c-.054 0-.108-.036-.143-.09l-5.4-9.572a.147.147 0 01.035-.197l6.261-5.488c.072-.072.18-.072.234.018z" fill="#3AC4A7"/></svg><svg viewBox="0 0 16 15" id="sprite--rating_star" xmlns="http://www.w3.org/2000/svg"><path d="M8 0l1.796 5.528h5.813l-4.703 3.416 1.796 5.528L8 11.056l-4.702 3.416 1.796-5.528L.392 5.528h5.812L8 0z"/></svg></svg>