<svg width="37" height="23" viewBox="0 0 37 23" fill="none" xmlns="http://www.w3.org/2000/svg">
<path fill-rule="evenodd" clip-rule="evenodd" d="M36.486 1.36634H0V0H36.486V1.36634ZM0 5.35149V3.98515H36.486V5.35149H5.51573V7.81059L7.14119 6.52377C7.43701 6.28958 7.86668 6.33954 8.10087 6.63536C8.33506 6.93118 8.28511 7.36085 7.98928 7.59504L5.51573 9.55327V11.9319L8.40043 9.7066C8.69917 9.47615 9.12817 9.5315 9.35863 9.83024C9.58909 10.129 9.53374 10.558 9.23499 10.7884L5.51573 13.6576V18.104H36.486V19.4703H0V18.104H4.14939V13.6634L0.323648 10.7941C0.0218053 10.5677 -0.0393676 10.1395 0.187014 9.83762C0.413397 9.53578 0.841608 9.47461 1.14345 9.70099L4.14939 11.9554V9.54454L1.77865 7.5861C1.48776 7.34581 1.44675 6.9152 1.68705 6.62431C1.92735 6.33342 2.35796 6.29241 2.64884 6.53271L4.14939 7.77229V5.35149H0ZM36.486 23H0V21.6337H36.486V23Z" fill="#CDE4E0"/>
<path d="M30.288 11.1586L28.4337 6.80149C28.3864 6.68899 28.3073 6.59299 28.2061 6.52547C28.105 6.45796 27.9864 6.4219 27.8651 6.4218H26.0108V5.1769C26.0108 5.01182 25.9456 4.8535 25.8297 4.73677C25.7138 4.62003 25.5566 4.55446 25.3927 4.55446H13.6487C13.4847 4.55446 13.3275 4.62003 13.2116 4.73677C13.0957 4.8535 13.0306 5.01182 13.0306 5.1769V15.7585C13.0306 15.9236 13.0957 16.0819 13.2116 16.1987C13.3275 16.3154 13.4847 16.381 13.6487 16.381H14.9714C15.1138 16.9084 15.4245 17.374 15.8557 17.706C16.2869 18.038 16.8145 18.2178 17.3573 18.2178C17.9001 18.2178 18.4277 18.038 18.8589 17.706C19.2901 17.374 19.6008 16.9084 19.7432 16.381H23.6249C23.7672 16.9084 24.078 17.374 24.5091 17.706C24.9403 18.038 25.468 18.2178 26.0108 18.2178C26.5535 18.2178 27.0812 18.038 27.5124 17.706C27.9436 17.374 28.2543 16.9084 28.3967 16.381H29.7194C29.8833 16.381 30.0405 16.3154 30.1565 16.1987C30.2724 16.0819 30.3375 15.9236 30.3375 15.7585V11.4014C30.3373 11.318 30.3205 11.2354 30.288 11.1586ZM26.0108 7.6667H27.4571L28.7799 10.7789H26.0108V7.6667ZM17.3573 17.0034C17.1128 17.0034 16.8738 16.9304 16.6705 16.7936C16.4672 16.6568 16.3088 16.4624 16.2152 16.2349C16.1216 16.0075 16.0971 15.7571 16.1448 15.5157C16.1925 15.2742 16.3103 15.0524 16.4832 14.8783C16.6561 14.7042 16.8763 14.5856 17.1161 14.5376C17.3559 14.4895 17.6045 14.5142 17.8304 14.6084C18.0563 14.7026 18.2493 14.8622 18.3852 15.0669C18.521 15.2716 18.5935 15.5123 18.5935 15.7585C18.5935 16.0887 18.4633 16.4053 18.2314 16.6388C17.9996 16.8723 17.6852 17.0034 17.3573 17.0034ZM23.6249 15.1361H19.7432C19.6008 14.6086 19.2901 14.143 18.8589 13.8111C18.4277 13.4791 17.9001 13.2992 17.3573 13.2992C16.8145 13.2992 16.2869 13.4791 15.8557 13.8111C15.4245 14.143 15.1138 14.6086 14.9714 15.1361H14.2668V5.79935H24.7746V13.6173C24.4931 13.7818 24.2467 14.0006 24.0494 14.2613C23.8521 14.5219 23.7078 14.8192 23.6249 15.1361ZM26.0108 17.0034C25.7663 17.0034 25.5273 16.9304 25.324 16.7936C25.1207 16.6568 24.9622 16.4624 24.8687 16.2349C24.7751 16.0075 24.7506 15.7571 24.7983 15.5157C24.846 15.2742 24.9637 15.0524 25.1366 14.8783C25.3095 14.7042 25.5298 14.5856 25.7696 14.5376C26.0094 14.4895 26.258 14.5142 26.4838 14.6084C26.7097 14.7026 26.9028 14.8622 27.0386 15.0669C27.1745 15.2716 27.247 15.5123 27.247 15.7585C27.247 16.0887 27.1167 16.4053 26.8849 16.6388C26.6531 16.8723 26.3386 17.0034 26.0108 17.0034ZM29.1013 15.1361H28.3967C28.26 14.603 27.9517 14.1305 27.52 13.7926C27.0883 13.4548 26.5575 13.2705 26.0108 13.2687V12.0238H29.1013V15.1361Z" fill="#CDE4E0"/>
</svg>
