<?xml version="1.0" encoding="utf-8"?><svg viewBox="0 0 170 104" xmlns="http://www.w3.org/2000/svg" xmlns:xlink="http://www.w3.org/1999/xlink"><style>:root>svg{display:none}:root>svg:target{display:block}</style><svg fill="none" viewBox="0 0 98 103" id="sprite--adv-1" xmlns="http://www.w3.org/2000/svg"><path d="M18.224 101H6.125a4 4 0 01-4-4V37.304a4 4 0 011.623-3.218L46.173 2.74a4 4 0 014.723-.023l43.325 31.372a4 4 0 011.654 3.24V97a4 4 0 01-4 4H80.724m-62.5 0V45.952a4 4 0 014-4h54.5a4 4 0 014 4v9.334M18.224 101h16.098m46.401 0V78.143m0 22.857h-23.2m-23.201 0V82.143a4 4 0 014-4h19.2M34.323 101h23.2m23.202-22.857H57.523m23.2 0V55.286M57.523 101V78.143m0 0V59.286a4 4 0 014-4h19.2" stroke="#2E9D86" stroke-width="3"/></svg><svg fill="none" viewBox="0 0 98 104" id="sprite--adv-2" xmlns="http://www.w3.org/2000/svg"><path d="M69.954 41.078v56.756s0 0 0 0 0 4.166-4.448 4.166H7.129c-5.004 0-5.004-4.166-5.004-4.166s0 0 0 0V28.581s0 0 0 0 0-5.728 5.004-5.728h50.593m12.232 18.225L49.556 58.633a1 1 0 01-.394.208l-19.238 5.148m40.03-22.911l16.679-15.621m-56.71 38.532L33.17 51.49m-3.246 12.5H13.8m16.123 0h27.8m0-41.136l13.142-11.976M57.722 22.853l-15.739 15.1m28.882-27.076l7.394-6.738a.773.773 0 00.064-.064c.327-.344 3.216-3.263 5.53-1.53 5.56 4.166 8.34 7.29 11.12 10.415 2.263 2.544-.428 5.087-.552 5.203l-.01.01-7.778 7.284m-15.768-14.58l15.768 14.58M13.8 37.953h28.183m0 0l-6.851 6.574a1 1 0 00-.276.47L33.17 51.49m-19.369 0h19.37M13.8 76.485h43.922M13.8 89.502h43.922" stroke="#2E9D86" stroke-width="3" stroke-linecap="round"/></svg><svg fill="none" viewBox="0 0 120 104" id="sprite--adv-3" xmlns="http://www.w3.org/2000/svg"><path d="M45.938 82.667c0 10.677-8.115 19.333-18.126 19.333-10.01 0-18.125-8.656-18.125-19.333m36.25 0c0-10.678-8.114-19.334-18.124-19.334-10.01 0-18.125 8.656-18.125 19.334m36.25 0h26.25m-62.5 0H2.811c-.69 0-1.25-.597-1.25-1.334v-78c0-.736.56-1.333 1.25-1.333h82.5c.69 0 1.25.597 1.25 1.333v11.334m21.876 68c0 10.677-8.115 19.333-18.126 19.333-10.01 0-18.124-8.656-18.124-19.333m36.25 0c0-10.678-8.115-19.334-18.126-19.334-1.285 0-2.54.143-3.75.415m21.876 18.919h8.75c.69 0 1.25-.597 1.25-1.334v-32m-46.25 33.334c0-9.306 6.164-17.077 14.374-18.92m0-49.08h16.076c.487 0 .93.302 1.135.774l14.665 33.892M86.562 14.667v34.666m31.876 0H86.562m0 0v14.415" stroke="#2E9D86" stroke-width="3"/></svg><svg fill="none" viewBox="0 0 64 65" id="sprite--arrow_swiper" xmlns="http://www.w3.org/2000/svg"><circle cx="32" cy="32.5" r="31.5" stroke="#2E9D86"/><path d="M39.24 31.775l-11.146-10.62a1 1 0 00-1.38 0l-.012.012a.918.918 0 000 1.334l10.496 10-10.496 9.996a.919.919 0 000 1.334l.012.012a1 1 0 001.38 0l11.146-10.62a1 1 0 000-1.448z" fill="#2E9D86"/></svg><svg fill="none" viewBox="0 0 170 45" id="sprite--logo" xmlns="http://www.w3.org/2000/svg"><path d="M65.05 41.21v-.648h3.194v.647h-1.238v3.293h-.7v-3.293h-1.255zm5.76 3.292h-.7v-3.94h1.094c.27 0 .502.035.718.108a.942.942 0 01.466.287c.108.108.197.252.251.396.054.144.09.306.09.486 0 .36-.144.648-.395.9-.251.251-.61.36-1.058.36-.216 0-.395 0-.503-.037v1.44h.036zm.484-3.31h-.503v1.205c.162.036.341.036.467.036.215 0 .395-.054.52-.162.144-.108.197-.252.197-.486.018-.396-.197-.594-.681-.594zm2.673 3.31l1.632-3.94h.61l1.633 3.94h-.718l-.412-1.008h-1.669l-.412 1.008h-.664zm1.901-3.059l-.574 1.403h1.13l-.556-1.403zm6.315 3.059V42.81h-1.776v1.692h-.7v-3.94h.7v1.6h1.776v-1.6h.664v3.94h-.663zm5.723-.899l.251.503c-.107.145-.304.216-.52.306-.215.09-.466.108-.717.108-.575 0-1.077-.198-1.436-.557-.358-.36-.556-.864-.556-1.458 0-.593.162-1.061.52-1.457.36-.396.826-.558 1.472-.558.502 0 .879.144 1.184.396l-.305.504a1.621 1.621 0 00-.88-.252c-.358 0-.663.108-.914.36s-.36.594-.36 1.007c0 .414.144.738.395.99.252.252.575.396.97.396.322.036.627-.09.896-.288zm4.664.899v-3.293h-1.72v3.293h-.7v-3.94h3.104v3.94h-.682zm2.764-1.961c0-.593.197-1.061.556-1.457a1.933 1.933 0 011.435-.594c.574 0 1.076.198 1.435.558.359.36.574.864.574 1.457 0 .594-.197 1.062-.574 1.458-.395.395-.861.557-1.435.557a2.018 2.018 0 01-1.435-.557c-.36-.36-.556-.828-.556-1.422zm.717 0c0 .396.144.738.359.99.251.252.556.396.915.396.394 0 .718-.144.933-.396.215-.252.359-.594.359-.99 0-.395-.144-.737-.36-.99a1.271 1.271 0 00-.932-.395c-.359 0-.7.144-.915.396a1.478 1.478 0 00-.359.99zm6.1 1.961h-.7v-3.94h1.095c.269 0 .502.035.717.108a.947.947 0 01.467.287c.107.126.197.252.251.396.054.144.089.306.089.486 0 .36-.143.648-.394.9-.251.251-.61.36-1.059.36-.215 0-.394 0-.502-.037v1.44h.036zm.466-3.31h-.502v1.205c.161.036.341.036.466.036.216 0 .395-.054.521-.162.143-.108.197-.252.197-.486.036-.396-.215-.594-.682-.594zm2.96.018v-.648h3.193v.647h-1.237v3.293h-.7v-3.293h-1.256zm7.535 3.292V42.81h-1.776v1.692h-.682v-3.94h.7v1.6h1.776v-1.6h.664v3.94h-.682zm2.583 0l1.633-3.94h.61l1.632 3.94h-.717l-.413-1.008h-1.668l-.413 1.008h-.664zm1.902-3.059l-.574 1.403h1.13l-.556-1.403zm5.597 3.059v-1.35h-.556l-.861 1.35h-.771l1.004-1.494a1.872 1.872 0 01-.502-.413c-.144-.162-.197-.396-.197-.648 0-.396.143-.738.394-.99.269-.252.664-.395 1.184-.395h.969v3.94h-.664zm-.646-2.015h.61V41.19c-.197 0-.34-.036-.412-.036-.215 0-.395.054-.52.198-.144.108-.198.288-.198.486a.57.57 0 00.162.414.817.817 0 00.358.234zm6.154 2.015v-3.94h.7v1.853l1.524-1.853h.826l-1.615 1.835 1.686 2.105h-.861l-1.578-2.033v2.033h-.682zm4.539-1.961c0-.593.197-1.061.556-1.457a1.933 1.933 0 011.435-.594c.574 0 1.076.198 1.435.558.359.36.574.864.574 1.457a2.01 2.01 0 01-.574 1.458c-.376.395-.861.557-1.435.557a2.018 2.018 0 01-1.435-.557c-.395-.36-.556-.828-.556-1.422zm.717 0c0 .396.144.738.359.99.251.252.556.396.915.396.395 0 .718-.144.933-.396.215-.252.359-.594.359-.99a1.52 1.52 0 00-.359-.99 1.27 1.27 0 00-.933-.395c-.359 0-.7.144-.915.396a1.48 1.48 0 00-.359.99zm5.4 1.961v-3.94h.7l1.328 1.835 1.273-1.835h.628v3.94h-.664v-2.843l-1.219 1.745h-.108l-1.238-1.745v2.843h-.7zm8.701 0v-3.293h-1.722v3.293h-.7v-3.94h3.104v3.94h-.682zm2.548 0l1.632-3.94h.61l1.633 3.94h-.718l-.412-1.008h-1.669l-.412 1.008h-.664zm1.937-3.059l-.574 1.403h1.131l-.557-1.403zm6.279 3.059V42.81h-1.776v1.692h-.699v-3.94h.699v1.6h1.776v-1.6h.664v3.94h-.664zm3.66 0h-.61v-3.94h.7v2.806l2.027-2.806h.61v3.94h-.7v-2.789l-2.027 2.789zm6.835 0v-1.35h-.538l-.861 1.35h-.772l1.005-1.494a1.872 1.872 0 01-.502-.413c-.144-.162-.198-.396-.198-.648 0-.396.144-.738.395-.99.269-.252.664-.395 1.184-.395H170v3.94h-.682zm-.628-2.015h.61V41.19c-.197 0-.341-.036-.412-.036-.216 0-.395.054-.521.198-.143.108-.197.288-.197.486a.57.57 0 00.162.414.659.659 0 00.358.234z" fill="#fff"/><path d="M147.108 13.106c0-.162.126-.288.287-.288h5.149c.162 0 .287.126.287.288v6.55h11.446v-6.55c0-.162.126-.288.287-.288h5.149c.161 0 .287.126.287.288v18.765a.284.284 0 01-.287.288h-5.149a.284.284 0 01-.287-.288V24.19h-10.333a.27.27 0 01-.27-.198l-.825-2.573v10.453a.283.283 0 01-.287.288h-5.149a.284.284 0 01-.287-.288V13.106h-.018z" fill="#3AC4A7"/><path fill-rule="evenodd" clip-rule="evenodd" d="M133.061 12.818c1.346 0 2.243.936 2.53 1.422l8.809 17.523c.089.198-.036.414-.252.414h-5.561a.27.27 0 01-.251-.162l-1.489-2.968h-6.925a.27.27 0 01-.269-.198l-1.238-3.67-3.445 6.836c-.053.09-.143.162-.251.162h-5.561c-.215 0-.341-.216-.251-.413l9.436-18.766c.054-.09.144-.162.251-.162h4.467v-.018zm-4.467 11.965h6.1l-3.05-6.063-3.05 6.063z" fill="#3AC4A7"/><path d="M113.884 12.818c-2.404 0-4.037.882-4.755 1.476L99.011 24.35V13.106a.284.284 0 00-.287-.288h-5.149a.284.284 0 00-.287.288v18.765c0 .162.126.288.287.288h2.01c2.475 0 4.144-.935 4.826-1.529l10.046-9.985v11.244c0 .162.126.288.287.288h5.149a.284.284 0 00.287-.288V13.106a.284.284 0 00-.287-.288h-2.009z" fill="#3AC4A7"/><path fill-rule="evenodd" clip-rule="evenodd" d="M79.241 12.818c1.346 0 2.243.936 2.53 1.422l8.808 17.523c.09.198-.036.414-.25.414h-5.562a.27.27 0 01-.251-.162l-1.49-2.968h-6.924a.27.27 0 01-.27-.198l-1.237-3.67-3.445 6.836c-.054.09-.143.162-.251.162h-5.561c-.216 0-.341-.216-.252-.413l9.437-18.766c.054-.09.143-.162.251-.162h4.467v-.018zm-4.467 11.965h6.1l-3.05-6.063-3.05 6.063z" fill="#3AC4A7"/><path d="M32.346 17.209L20.63 37.16c-.036.036-.036.054-.054.054L8.63 41.263c-.054.036-.143 0-.143-.09v-.108L32.382.063c.036-.054.107-.09.161-.036.036 0 .036.036.036.036l11.267 19.359c.035.054.035.107-.036.143l-6.01 6.19c-.054.054-.108.054-.18 0 0 0 0-.036-.036-.036l-5.059-8.546c-.036-.054-.107-.09-.161-.036.018.054-.018.054-.018.072z" fill="#3AC4A7"/><path d="M48.42 16.471l-4.234-3.148c-.053-.054-.09-.144-.035-.198.035-.036.053-.054.09-.054l12.234-2.357c.198-.036.305.054.305.252l.825 13.098c0 .053-.035.09-.09.09-.035 0-.035 0-.053-.037l-4.037-3.364c-.09-.09-.179-.054-.233.036-.915 1.08-1.812 2.16-2.709 3.167C37.836 38.493 19.43 45.977.053 44.898c-.035 0-.053-.036-.053-.054 0-.018.036-.054.054-.054 13.168-1.817 26.228-7.16 36.436-15.725 4.413-3.706 8.557-7.61 11.948-12.288.09-.126.09-.216-.018-.306z" fill="#fff"/><path d="M49.46 29.101l8.81 15.06c.053.089.035.161-.055.233-.035.036-.053.036-.09.036h-9.651c-.054 0-.108-.036-.143-.09l-5.4-9.572a.147.147 0 01.035-.197l6.261-5.488c.072-.072.18-.072.234.018z" fill="#3AC4A7"/></svg><svg viewBox="0 0 16 15" id="sprite--rating_star" xmlns="http://www.w3.org/2000/svg"><path d="M8 0l1.796 5.528h5.813l-4.703 3.416 1.796 5.528L8 11.056l-4.702 3.416 1.796-5.528L.392 5.528h5.812L8 0z"/></svg></svg>